<svg width="3109" height="1420" viewBox="0 0 3109 1420" fill="none" xmlns="http://www.w3.org/2000/svg">
<path d="M641.6 1362H46.4V1333.2L294.4 758.8L388.8 718L641.6 1328.4V1362ZM318.4 820.4L103.2 1321.2H525.6L318.4 820.4Z" fill="#1A1A1A"/>
<path d="M619.875 714.5H697.39L718.295 735.405V823.095L697.39 844H619.875V714.5ZM689.065 828.46L700.535 816.99V741.51L689.065 730.04H637.635V828.46H689.065ZM741.397 826.425V769.63L759.157 751.87H807.442L825.202 769.63V803.3H758.602V821.06L766.742 829.2H799.857L807.997 821.245V814.955H825.017V826.425L807.627 844H758.972L741.397 826.425ZM807.997 789.795V774.81L799.672 766.67H766.927L758.602 774.81V789.795H807.997ZM849.318 711.91H866.523V844H849.318V711.91ZM901.704 826.425V766.67H885.054V751.87H902.074V721.9H918.909V751.87H947.584V766.855H918.909V820.875L927.234 829.015H947.584V844H919.464L901.704 826.425ZM964.315 828.275V805.52L980.04 789.795H1028.51V774.255L1020.37 766.3H990.215L982.26 774.255V781.1H965.055V769.815L983 751.87H1027.58L1045.53 769.815V844H1029.43V828.83L1013.52 844H980.04L964.315 828.275ZM1011.12 829.755L1028.51 813.105V803.485H987.995L981.52 809.96V823.465L987.995 829.755H1011.12ZM743.244 970.855H704.209V955.5H800.039V970.855H761.004V1085H743.244V970.855ZM817.68 952.91H834.885V1010.44L852.46 992.87H881.505L899.635 1011V1085H882.43V1016.18L874.105 1007.85H856.16L834.885 1029.13V1085H817.68V952.91ZM922.784 1067.42V1010.63L940.544 992.87H988.829L1006.59 1010.63V1044.3H939.989V1062.06L948.129 1070.2H981.244L989.384 1062.24V1055.95H1006.4V1067.42L989.014 1085H940.359L922.784 1067.42ZM989.384 1030.79V1015.81L981.059 1007.67H948.314L939.989 1015.81V1030.79H989.384ZM1077.5 955.5H1095.44L1135.96 1050.22H1136.33L1177.03 955.5H1194.97V1085H1177.95V990.465H1177.58L1142.43 1070.38H1129.85L1094.89 990.465H1094.52V1085H1077.5V955.5ZM1219.05 1069.27V1046.52L1234.78 1030.79H1283.25V1015.25L1275.11 1007.3H1244.95L1237 1015.25V1022.1H1219.79V1010.81L1237.74 992.87H1282.32L1300.27 1010.81V1085H1284.17V1069.83L1268.26 1085H1234.78L1219.05 1069.27ZM1265.86 1070.75L1283.25 1054.1V1044.48H1242.73L1236.26 1050.96V1064.46L1242.73 1070.75H1265.86ZM1323.32 1067.42V1010.44L1340.89 992.87H1387.33L1405.09 1010.63V1023.76H1387.88V1016.18L1379.56 1007.85H1348.85L1340.52 1016.18V1061.69L1348.85 1070.01H1379.56L1387.88 1061.69V1054.1H1405.09V1067.24L1387.33 1085H1340.89L1323.32 1067.42ZM1425.43 952.91H1442.64V1010.44L1460.21 992.87H1489.26L1507.39 1011V1085H1490.18V1016.18L1481.86 1007.85H1463.91L1442.64 1029.13V1085H1425.43V952.91ZM1531.46 972.335V963.085L1537.94 956.425H1547.74L1554.22 963.085V972.335L1547.74 978.995H1537.94L1531.46 972.335ZM1534.24 992.87H1551.44V1085H1534.24V992.87ZM1579.18 992.87H1595.64V1011L1613.77 992.87H1642.63L1660.76 1011V1085H1643.56V1016.18L1635.23 1007.85H1617.66L1596.38 1029.13V1085H1579.18V992.87ZM1683.92 1067.42V1010.63L1701.68 992.87H1749.97L1767.73 1010.63V1044.3H1701.13V1062.06L1709.27 1070.2H1742.38L1750.52 1062.24V1055.95H1767.54V1067.42L1750.15 1085H1701.5L1683.92 1067.42ZM1750.52 1030.79V1015.81L1742.2 1007.67H1709.45L1701.13 1015.81V1030.79H1750.52ZM1838.63 955.5H1856.39V1069.64H1921.88V1085H1838.63V955.5ZM1934.86 1067.42V1010.63L1952.62 992.87H2000.91L2018.67 1010.63V1044.3H1952.07V1062.06L1960.21 1070.2H1993.32L2001.46 1062.24V1055.95H2018.48V1067.42L2001.09 1085H1952.44L1934.86 1067.42ZM2001.46 1030.79V1015.81L1993.14 1007.67H1960.39L1952.07 1015.81V1030.79H2001.46ZM2039.09 1069.27V1046.52L2054.81 1030.79H2103.28V1015.25L2095.14 1007.3H2064.99L2057.03 1015.25V1022.1H2039.83V1010.81L2057.77 992.87H2102.36L2120.3 1010.81V1085H2104.21V1069.83L2088.3 1085H2054.81L2039.09 1069.27ZM2085.89 1070.75L2103.28 1054.1V1044.48H2062.77L2056.29 1050.96V1064.46L2062.77 1070.75H2085.89ZM2145.2 992.87H2161.67V1008.96L2177.58 992.87H2202.18V1007.85H2181.46L2162.41 1027.09V1085H2145.2V992.87ZM2217.83 992.87H2234.29V1011L2252.42 992.87H2281.28L2299.41 1011V1085H2282.21V1016.18L2273.88 1007.85H2256.31L2235.03 1029.13V1085H2217.83V992.87ZM2323.49 972.335V963.085L2329.97 956.425H2339.77L2346.25 963.085V972.335L2339.77 978.995H2329.97L2323.49 972.335ZM2326.27 992.87H2343.47V1085H2326.27V992.87ZM2371.21 992.87H2387.68V1011L2405.81 992.87H2434.67L2452.8 1011V1085H2435.59V1016.18L2427.27 1007.85H2409.69L2388.42 1029.13V1085H2371.21V992.87ZM2560.5 992.87V1107.76L2542.74 1125.52H2495.56L2480.21 1110.35V1098.69H2497.6V1104.98L2502.96 1110.53H2534.97L2543.29 1102.39V1070.75L2527.75 1085H2493.71L2475.95 1067.24V1010.63L2493.71 992.87H2529.05L2544.22 1007.85V992.87H2560.5ZM2543.29 1024.69L2526.09 1007.85H2501.67L2493.16 1016.36V1061.5L2501.67 1070.01H2525.53L2543.29 1052.81V1024.69ZM853.835 1196.5H938.935V1212.04H871.595V1254.96H930.055V1270.5H871.595V1326H853.835V1196.5ZM951.733 1233.87H968.198V1249.96L984.108 1233.87H1008.71V1248.85H987.993L968.938 1268.09V1326H951.733V1233.87ZM1016.89 1310.27V1287.52L1032.61 1271.79H1081.08V1256.25L1072.94 1248.3H1042.79L1034.83 1256.25V1263.1H1017.63V1251.81L1035.57 1233.87H1080.16L1098.1 1251.81V1326H1082.01V1310.83L1066.1 1326H1032.61L1016.89 1310.27ZM1063.69 1311.75L1081.08 1295.1V1285.48H1040.57L1034.09 1291.96V1305.46L1040.57 1311.75H1063.69ZM1123 1233.87H1139.47V1250.7L1156.3 1233.87H1178.69L1192.56 1247.74L1206.25 1233.87H1236.41L1254.35 1251.81V1326H1237.15V1257.18L1228.82 1248.85H1210.14L1198.11 1260.88V1326H1181.46V1256.99L1173.32 1248.85H1159.26L1140.21 1267.91V1326H1123V1233.87ZM1277.43 1308.42V1251.63L1295.19 1233.87H1343.47L1361.23 1251.63V1285.3H1294.63V1303.06L1302.77 1311.2H1335.89L1344.03 1303.24V1296.95H1361.05V1308.42L1343.66 1326H1295L1277.43 1308.42ZM1344.03 1271.79V1256.81L1335.7 1248.67H1302.96L1294.63 1256.81V1271.79H1344.03ZM1375.22 1233.87H1392.79L1406.85 1304.35H1407.41L1427.76 1233.87H1444.04L1462.72 1304.35H1463.28L1478.63 1233.87H1496.21L1472.71 1326H1455.32L1436.08 1254.59H1435.53L1414.62 1326H1397.05L1375.22 1233.87ZM1511.03 1308.24V1251.63L1528.79 1233.87H1578L1595.57 1251.63V1308.24L1578 1326H1528.79L1511.03 1308.24ZM1570.04 1311.01L1578.37 1302.88V1256.99L1570.04 1248.85H1536.56L1528.23 1256.99V1302.88L1536.56 1311.01H1570.04ZM1619.65 1233.87H1636.11V1249.96L1652.02 1233.87H1676.63V1248.85H1655.91L1636.85 1268.09V1326H1619.65V1233.87ZM1692.28 1193.91H1709.48V1270.5H1729.28L1755.18 1233.87H1774.23L1743.34 1278.27L1776.08 1326H1757.03L1729.09 1285.67H1709.48V1326H1692.28V1193.91Z" fill="#1A1A1A"/>
</svg>
