<svg width="151" height="117" viewBox="0 0 151 117" fill="none" xmlns="http://www.w3.org/2000/svg">
<path fill-rule="evenodd" clip-rule="evenodd" d="M66.9782 0.463478C54.4197 2.3725 43.2456 7.79831 34.535 16.2172C25.1722 25.2666 19.4568 36.1623 17.2756 49.1191L16.7666 52.1413L8.3833 52.2162L0 52.2911V58.3629V64.4348H14.2344H28.4689L28.6294 58.4293C28.8408 50.5268 29.5739 46.7938 32.0973 40.7711C36.68 29.8327 44.3184 21.7606 54.9049 16.6683C60.6735 13.8933 64.9579 12.7035 71.288 12.118L74.8913 11.7848V5.89239V0L72.2771 0.0276955C70.8395 0.0429564 68.4549 0.239087 66.9782 0.463478ZM71.5706 31.0867C62.0863 32.4214 54.2043 38.1649 50.1704 46.6805C47.6419 52.0184 46.8701 58.2253 48.0341 63.8625C49.9627 73.2024 56.3838 80.8775 65.0717 84.2281C68.8395 85.681 70.7044 86.0165 75.0326 86.019C79.9319 86.0218 82.815 85.3829 86.9021 83.3879C95.8795 79.0064 101.659 70.7765 102.552 61.1057C103.848 47.0634 94.5436 34.4345 80.7384 31.497C78.2543 30.9685 73.8207 30.7702 71.5706 31.0867ZM121.522 56.5328C121.522 65.3544 120.21 71.693 116.984 78.4541C109.794 93.5226 94.5026 103.902 78.2119 104.77L75.1739 104.933V110.966V117H77.09C85.467 117 96.493 113.787 104.71 108.951C120.332 99.7569 130.423 84.3954 133.258 65.4946L133.417 64.4348H141.741H150.065V58.3587V52.2826H135.793H121.522V56.5328Z" fill="#1A1A1A"/>
</svg>
