<svg width="631" height="117" viewBox="0 0 631 117" fill="none" xmlns="http://www.w3.org/2000/svg">
<path d="M195.265 31.3H230.824L238.924 39.4V55.276L235.684 58.597L241.435 64.429V79.252L232.687 88H195.265V31.3ZM225.154 55.033L228.07 52.117V43.369L225.235 40.534H206.038V55.033H225.154ZM227.098 78.766L230.581 75.283V67.345L227.098 63.862H206.038V78.766H227.098Z" fill="white"/>
<path d="M249.529 30.166H260.221V88H249.529V30.166Z" fill="white"/>
<path d="M269.108 80.548V71.314L276.56 63.862H297.053V58.759L294.542 56.248H282.392L279.962 58.759V61.027H269.432V56.41L278.099 47.662H298.916L307.583 56.41V88H297.944V82.249L291.95 88H276.56L269.108 80.548ZM291.221 79.738L297.053 74.149V71.476H281.825L279.638 73.663V77.713L281.663 79.738H291.221Z" fill="white"/>
<path d="M316.104 79.738V55.924L324.285 47.662H346.479L354.822 56.086V63.538H344.13V59.569L341.295 56.734H329.631L326.796 59.569V76.093L329.631 78.928H341.295L344.13 76.093V72.124H354.822V79.576L346.479 88H324.285L316.104 79.738Z" fill="white"/>
<path d="M362.081 30.166H372.773V62.485H379.82L390.107 47.662H401.933L388.487 67.102L402.743 88H390.917L379.577 71.557H372.773V88H362.081V30.166Z" fill="white"/>
<path d="M408.444 31.3H444.003L452.67 40.048V59.893L443.922 68.722H419.46V88H408.444V31.3ZM438.981 59.488L441.816 56.653V43.369L438.981 40.534H419.46V59.488H438.981Z" fill="white"/>
<path d="M457.537 79.576V56.086L465.88 47.662H489.046L497.389 56.086V79.576L489.046 88H465.88L457.537 79.576ZM483.862 79.09L486.697 76.255V59.407L483.862 56.572H471.064L468.229 59.407V76.255L471.064 79.09H483.862Z" fill="white"/>
<path d="M506.283 47.662H516.165V54.385L522.645 47.662H534.147V56.734H524.832L516.975 64.834V88H506.283V47.662Z" fill="white"/>
<path d="M543.071 79.738V56.653H535.781V47.662H543.233V34.54H553.763V47.662H566.075V56.734H553.763V76.255L556.517 78.928H566.075V88H551.414L543.071 79.738Z" fill="white"/>
<path d="M571.75 80.548V71.314L579.202 63.862H599.695V58.759L597.184 56.248H585.034L582.604 58.759V61.027H572.074V56.41L580.741 47.662H601.558L610.225 56.41V88H600.586V82.249L594.592 88H579.202L571.75 80.548ZM593.863 79.738L599.695 74.149V71.476H584.467L582.28 73.663V77.713L584.305 79.738H593.863Z" fill="white"/>
<path d="M619.961 30.166H630.653V88H619.961V30.166Z" fill="white"/>
<path fill-rule="evenodd" clip-rule="evenodd" d="M66.9782 0.463478C54.4197 2.3725 43.2456 7.79831 34.535 16.2172C25.1722 25.2666 19.4568 36.1623 17.2756 49.1191L16.7666 52.1413L8.3833 52.2162L0 52.2911V58.3629V64.4348H14.2344H28.4689L28.6294 58.4293C28.8408 50.5268 29.5739 46.7938 32.0973 40.7711C36.68 29.8327 44.3184 21.7606 54.9049 16.6683C60.6735 13.8933 64.9579 12.7035 71.288 12.118L74.8913 11.7848V5.89239V0L72.2771 0.0276955C70.8395 0.0429564 68.4549 0.239087 66.9782 0.463478ZM71.5706 31.0867C62.0863 32.4214 54.2043 38.1649 50.1704 46.6805C47.6419 52.0184 46.8701 58.2253 48.0341 63.8625C49.9627 73.2024 56.3838 80.8775 65.0717 84.2281C68.8395 85.681 70.7044 86.0165 75.0326 86.019C79.9319 86.0218 82.815 85.3829 86.9021 83.3879C95.8795 79.0064 101.659 70.7765 102.552 61.1057C103.848 47.0634 94.5436 34.4345 80.7384 31.497C78.2543 30.9685 73.8207 30.7702 71.5706 31.0867ZM121.522 56.5328C121.522 65.3544 120.21 71.693 116.984 78.4541C109.794 93.5226 94.5026 103.902 78.2119 104.77L75.1739 104.933V110.966V117H77.09C85.467 117 96.493 113.787 104.71 108.951C120.332 99.7569 130.423 84.3954 133.258 65.4946L133.417 64.4348H141.741H150.065V58.3587V52.2826H135.793H121.522V56.5328Z" fill="white"/>
</svg>
