<svg width="4995" height="892" viewBox="0 0 4995 892" fill="none" xmlns="http://www.w3.org/2000/svg">
<path d="M1493.55 270.184H1580.76C1651.99 341.296 1719.19 408.43 1782.34 471.586V270.734C1782.47 270.367 1782.65 270.184 1782.89 270.184H1843.3C1843.66 270.184 1843.85 270.367 1843.85 270.734V532.723C1843.85 533.09 1843.66 533.273 1843.3 533.273H1756.09C1684.86 462.161 1617.66 395.027 1554.5 331.871V532.723C1554.5 533.09 1554.32 533.273 1553.95 533.273H1493.55C1493.18 533.273 1493 533.09 1493 532.723V270.734C1493 270.367 1493.18 270.184 1493.55 270.184Z" fill="#A02D2F"/>
<path d="M2131.02 270.184H2480.76C2481.13 270.184 2481.31 270.367 2481.31 270.734V331.137C2481.31 331.504 2481.13 331.688 2480.76 331.688H2191.42V370.793H2419.63C2419.99 370.915 2420.18 371.099 2420.18 371.344V432.113C2420.18 432.48 2419.99 432.664 2419.63 432.664H2191.42V471.77H2480.76C2481.13 471.892 2481.31 472.076 2481.31 472.32V532.723C2481.31 533.09 2481.13 533.273 2480.76 533.273H2131.02C2130.65 533.273 2130.47 533.09 2130.47 532.723V270.734C2130.47 270.367 2130.65 270.184 2131.02 270.184Z" fill="#A02D2F"/>
<path d="M2768.48 270.184H3053.24C3074.66 270.184 3092.59 279.547 3107.03 298.273C3114.74 310.023 3118.6 322.508 3118.6 335.727V368.039C3118.6 379.422 3115.29 390.682 3108.68 401.82C3115.29 412.836 3118.6 424.035 3118.6 435.418V467.73C3118.6 489.272 3109.3 507.203 3090.69 521.523C3078.94 529.357 3066.46 533.273 3053.24 533.273H2768.48C2768.12 533.273 2767.93 533.09 2767.93 532.723V270.734C2767.93 270.367 2768.12 270.184 2768.48 270.184ZM2829.44 331.688V370.977H3053.24C3055.93 370.487 3057.28 369.141 3057.28 366.938V336.094C3056.91 333.156 3055.44 331.688 3052.87 331.688H2829.44ZM2829.44 432.664V471.77H3052.87C3055.81 471.402 3057.28 469.995 3057.28 467.547V436.703C3056.79 434.01 3055.44 432.664 3053.24 432.664H2829.44Z" fill="#A02D2F"/>
<path d="M3388.95 270.184H3449.35C3449.72 270.184 3449.9 270.367 3449.9 270.734V467.547C3450.27 470.362 3451.68 471.77 3454.13 471.77H3673.52C3676.34 471.402 3677.74 469.995 3677.74 467.547V270.734C3677.87 270.367 3678.05 270.184 3678.3 270.184H3738.7C3739.06 270.184 3739.25 270.367 3739.25 270.734V467.73C3739.25 489.15 3729.95 507.081 3711.34 521.523C3699.47 529.357 3686.92 533.273 3673.71 533.273H3453.94C3432.52 533.273 3414.59 523.971 3400.15 505.367C3392.32 493.495 3388.4 480.949 3388.4 467.73V270.734C3388.4 270.367 3388.58 270.184 3388.95 270.184Z" fill="#A02D2F"/>
<path d="M4041.42 270H4101.82C4102.19 270 4102.37 270.184 4102.37 270.551V471.77H4391.53C4391.78 471.77 4391.9 471.953 4391.9 472.32V532.723C4391.9 533.09 4391.78 533.273 4391.53 533.273H4041.42C4041.05 533.273 4040.87 533.09 4040.87 532.723V270.551C4040.87 270.184 4041.05 270 4041.42 270Z" fill="#A02D2F"/>
<path d="M4774.14 270.367H4865.2C4869.6 278.568 4881.17 301.884 4899.9 340.316L4995 533.09L4994.45 533.273H4921.93C4921.44 533.273 4917.03 524.583 4908.71 507.203C4900.02 489.578 4895.55 480.766 4895.31 480.766H4744.03C4740.97 486.396 4732.28 503.837 4717.96 533.09L4717.4 533.273H4644.89L4644.33 533.09C4726.58 366.509 4768.44 281.566 4769.91 278.262C4772.61 272.999 4774.01 270.367 4774.14 270.367ZM4819.48 326.73L4774.14 419.262H4865.2V419.078C4839.25 366.448 4824.13 335.665 4819.85 326.73H4819.48Z" fill="#A02D2F"/>
<path d="M538.375 14.625H572.02L585.941 25.0664L604.504 40.1484L616.105 50.5898L614.945 61.0312L613.785 63.3516L624.227 66.832L635.828 73.793L632.348 77.2734H616.105L618.426 78.4336V80.7539L630.027 84.2344L653.23 94.6758L657.871 98.1562V101.637H632.348L633.508 110.918L628.867 122.52L665.992 123.68L676.434 126L694.996 135.281L706.598 144.562L744.883 152.684L769.246 159.645L782.008 165.445L787.809 170.086L786.648 174.727L777.367 178.207L773.887 179.367H733.281L697.316 174.727L672.953 172.406H661.352L652.07 173.566L655.551 175.887L679.914 186.328L718.199 204.891L736.762 214.172L759.965 226.934L775.047 238.535L780.848 243.176L792.449 258.258L800.57 276.82L806.371 298.863L811.012 319.746L815.652 333.668L820.293 345.27L817.973 334.828L811.012 316.266L808.691 303.504V272.18L809.852 264.059L813.332 257.098L820.293 252.457L827.254 250.137L824.934 210.691L827.254 194.449L831.895 182.848L840.016 173.566L853.938 166.605L864.379 164.285L877.141 163.125H892.223L917.746 165.445L940.949 172.406L959.512 181.688L975.754 190.969L986.195 200.25L991.996 211.852L994.316 224.613V247.816L989.676 281.461L982.715 319.746V341.789L989.676 353.391L997.797 361.512L1014.04 374.273L1017.52 375.434L1026.8 384.715L1032.6 388.195L1040.72 397.477L1046.52 406.758L1047.68 416.039H1050V428.801H1047.68L1046.52 439.242L1041.88 448.523L1038.4 453.164H1036.08L1033.76 458.965L1027.96 464.766L1025.64 469.406L1023.32 470.566L1022.16 474.047L1018.68 476.367L1016.36 481.008L1012.88 483.328L1008.24 491.449L1004.76 492.609L1003.6 497.25L997.797 503.051L991.996 512.332L986.195 518.133L985.035 521.613L982.715 522.773L980.395 527.414L975.754 532.055L974.594 535.535L969.953 540.176L954.871 561.059L951.391 566.859L947.91 569.18L946.75 572.66H944.43L943.27 577.301L940.949 578.461L939.789 581.941L933.988 587.742L931.668 592.383L929.348 593.543L928.188 597.023L924.707 599.344L922.387 603.984L920.066 605.145L917.746 609.785L914.266 612.105L913.105 615.586L909.625 617.906L907.305 622.547L901.504 628.348L898.023 634.148L893.383 637.629L892.223 641.109L889.902 642.27L887.582 646.91L885.262 648.07L882.941 652.711L880.621 653.871L878.301 658.512L875.98 659.672L873.66 664.312L871.34 665.473L867.859 671.273L865.539 672.434L863.219 677.074L857.418 682.875L849.297 692.156L844.656 696.797L838.855 700.277L827.254 709.559L808.691 721.16L782.008 735.082L747.203 751.324L728.641 761.766L717.039 769.887L704.277 780.328L689.195 791.93L672.953 800.051L655.551 804.691L633.508 807.012L568.539 808.172L529.094 809.332L493.129 812.812L462.965 818.613L427 826.734L401.477 831.375L374.793 834.855H350.43L349.27 833.695L315.625 830.215V827.895L305.184 826.734L278.5 818.613L249.496 807.012L235.574 798.891L222.812 788.449L211.211 775.688L199.609 759.445L186.848 739.723L177.566 726.961L164.805 713.039L154.363 704.918L110.277 686.355L84.7539 675.914L63.8711 666.633L47.6289 656.191L39.5078 648.07L34.8672 637.629V627.188L38.3477 616.746L49.9492 600.504L55.75 594.703L54.5898 590.062L47.6289 572.66L44.1484 559.898L42.9883 548.297V536.695L46.4688 522.773L54.5898 506.531L63.8711 493.77L70.832 477.527L71.9922 471.727V454.324L66.1914 429.961L61.5508 412.559L60.3906 405.598V391.676L65.0312 373.113L76.6328 344.109L91.7148 309.305L96.3555 297.703L98.6758 288.422L99.8359 284.941H102.156L104.477 261.738L105.637 246.656H107.957L109.117 236.215L117.238 222.293L127.68 210.691L140.441 197.93L153.203 187.488L165.965 175.887H168.285V173.566L177.566 165.445L203.09 137.602L212.371 126L225.133 110.918L235.574 96.9961L249.496 79.5938L261.098 64.5117L269.219 56.3906L281.98 47.1094L300.543 37.8281L316.785 33.1875L324.906 32.0273H337.668L351.59 36.668L352.75 37.8281V48.2695L350.43 54.0703L357.391 52.9102L368.992 50.5898H416.559L440.922 44.7891L483.848 29.707L510.531 20.4258L530.254 15.7852L538.375 14.625Z" fill="#BA8A8B"/>
<path d="M701.957 142.242L712.398 145.723L744.883 152.684L769.246 159.645L782.008 165.445L787.809 170.086L786.648 174.727L777.367 178.207L773.887 179.367H733.281L697.316 174.727L672.953 172.406H661.352L652.07 173.566L655.551 175.887L679.914 186.328L718.199 204.891L736.762 214.172L759.965 226.934L775.047 238.535L780.848 243.176L792.449 258.258L800.57 276.82L806.371 298.863L811.012 319.746L815.652 333.668L820.293 345.27H822.613V354.551L819.133 369.633L809.852 390.516L794.77 419.52L780.848 442.723L772.727 455.484L766.926 463.605H764.605L763.445 457.805L757.645 460.125L751.844 468.246L753.004 472.887L754.164 481.008L747.203 490.289L744.883 492.609H741.402L742.562 456.645L741.402 454.324L736.762 455.484L732.121 462.445L733.281 474.047L729.801 479.848L721.68 486.809L696.156 500.73L676.434 511.172L674.113 513.492L672.953 525.094L665.992 535.535L659.031 541.336L628.867 543.656L626.547 544.816L632.348 549.457L633.508 555.258L623.066 566.859L610.305 577.301L590.582 591.223L580.141 598.184H577.82L576.66 601.664L563.898 609.785H561.578V612.105L589.422 608.625L610.305 605.145L627.707 603.984L626.547 612.105L619.586 616.746L603.344 621.387L573.18 624.867L527.934 627.188L538.375 632.988L537.215 636.469L524.453 642.27L505.891 646.91L479.207 650.391H464.125L457.164 644.59L440.922 613.266L433.961 605.145H428.16L414.238 620.227L409.598 626.027L400.316 634.148L389.875 641.109L387.555 642.27H379.434L367.832 628.348L355.07 620.227L341.148 607.465L322.586 590.062L306.344 576.141L293.582 565.699L284.301 557.578L279.66 550.617V544.816L290.102 539.016L304.023 532.055L312.145 523.934L317.945 511.172L321.426 489.129L324.906 483.328L344.629 476.367L352.75 474.047H377.113L394.516 476.367L386.395 467.086L385.234 463.605H382.914L370.152 447.363L349.27 416.039L338.828 393.996L335.348 382.395V368.473L338.828 361.512L348.109 353.391L366.672 344.109L381.754 338.309L393.355 331.348L394.516 326.707L384.074 304.664L382.914 301.184V293.062L386.395 289.582L389.875 288.422H427L464.125 283.781H480.367L496.609 289.582L489.648 265.219V251.297L490.809 247.816H493.129V245.496L500.09 242.016L510.531 239.695H524.453L540.695 245.496L562.738 258.258H566.219L558.098 245.496L552.297 235.055L549.977 229.254V225.773L580.141 224.613L591.742 219.973L595.223 216.492L597.543 208.371V194.449L588.262 175.887L583.621 168.926L584.781 165.445L607.984 156.164L627.707 148.043L634.668 143.402L642.789 144.562L657.871 149.203L685.715 155.004H704.277L706.598 153.844V148.043L701.957 142.242Z" fill="#765A5A"/>
<path d="M396.836 106.598H410.758L424.68 108.918L440.922 114.719L467.605 129.801L485.008 140.242L491.969 142.562L526.773 146.043H541.855L560.418 135.602L584.781 127.48L598.703 124L618.426 121.68H665.992L676.434 124L694.996 133.281L701.957 139.082L707.758 146.043V151.844L704.277 154.164H685.715L653.23 147.203L639.309 142.562L632.348 143.723L624.227 148.363L607.984 155.324L584.781 164.605L587.102 170.406L594.062 182.008L598.703 192.449V206.371L595.223 215.652L589.422 220.293L580.141 223.773H549.977L555.777 237.695L563.898 250.457L567.379 257.418L561.578 256.258L545.336 246.977L529.094 240.016L524.453 238.855H510.531L496.609 242.336L493.129 243.496V245.816H490.809V263.219L496.609 281.781V287.582L489.648 286.422L480.367 282.941H464.125L439.762 286.422L427 287.582H389.875L384.074 291.062V299.184L389.875 313.105L395.676 324.707L393.355 330.508L381.754 337.469L356.23 347.91L343.469 356.031L337.668 362.992L336.508 366.473V380.395L342.309 397.797L352.75 417.52L371.312 445.363L382.914 459.285V461.605H385.234L393.355 470.887L394.516 474.367L377.113 473.207H352.75L337.668 477.848L323.746 483.648L321.426 494.09L319.105 509.172L312.145 523.094L304.023 531.215L280.82 542.816L281.98 550.938L286.621 556.738L295.902 564.859L308.664 575.301L326.066 590.383L345.789 608.945L356.23 618.227L368.992 626.348L379.434 639.109H387.555L399.156 632.148L422.359 608.945L428.16 601.984H433.961L442.082 611.266L454.844 636.789L461.805 646.07L464.125 647.23H479.207L512.852 642.59L530.254 636.789L537.215 633.309V630.988L526.773 625.188V624.027L573.18 621.707L603.344 618.227L619.586 613.586L625.387 610.105L627.707 601.984L624.227 603.145L603.344 605.465L583.621 608.945L561.578 610.105V607.785L576.66 598.504L581.301 593.863L602.184 579.941L616.105 569.5L630.027 556.738L632.348 553.258L631.188 547.457L625.387 541.656L640.469 539.336L659.031 538.176L667.152 531.215L671.793 523.094L672.953 511.492L678.754 506.852L705.438 492.93L721.68 483.648L730.961 475.527L732.121 467.406L730.961 460.445L737.922 451.164L742.562 452.324L743.723 454.645L742.562 488.289L741.402 490.609L747.203 487.129L753.004 479.008L751.844 470.887L750.684 466.246L757.645 456.965L763.445 455.805L764.605 461.605L769.246 456.965L783.168 434.922L797.09 410.559L813.332 379.234L819.133 365.312L821.453 352.551V343.27L812.172 318.906L808.691 301.504V270.18L809.852 262.059L813.332 255.098L820.293 250.457L837.695 246.977L848.137 243.496H856.258L860.898 248.137L865.539 263.219V306.145L862.059 343.27L860.898 344.43L850.457 345.59L841.176 350.23L831.895 360.672L822.613 376.914L815.652 394.316L809.852 410.559L799.41 445.363L793.609 467.406L787.809 490.609L782.008 510.332L773.887 539.336L761.125 575.301L750.684 597.344L742.562 608.945L735.602 618.227H733.281V620.547L720.52 629.828L710.078 635.629L693.836 646.07L679.914 653.031L662.512 661.152L648.59 664.633L601.023 665.793L584.781 666.953L560.418 670.434L530.254 676.234L488.488 678.555L456.004 682.035L437.441 686.676L424.68 691.316L413.078 697.117L410.758 699.438H403.797L396.836 691.316L387.555 673.914L381.754 662.312L378.273 661.152L377.113 665.793L372.473 672.754L359.711 680.875L349.27 684.355H331.867L326.066 680.875L323.746 672.754L324.906 650.711L331.867 613.586L333.027 600.824L327.227 604.305L316.785 618.227H313.305L310.984 622.867L301.703 628.668L292.422 632.148L283.141 633.309H270.379L259.938 632.148L241.375 625.188L230.934 608.945L226.293 598.504L225.133 583.422L228.613 572.98L237.895 561.379L246.016 553.258L244.855 547.457L234.414 541.656L228.613 537.016L222.812 528.895L221.652 525.414V516.133L228.613 504.531L244.855 492.93L262.258 483.648L261.098 479.008L252.977 470.887L240.215 460.445L230.934 451.164L228.613 450.004L227.453 440.723L229.773 434.922L237.895 427.961L248.336 423.32L264.578 418.68L266.898 414.039L262.258 409.398V407.078L256.457 404.758L240.215 391.996L234.414 386.195L228.613 379.234L227.453 374.594V366.473L232.094 354.871L237.895 350.23L239.055 337.469V311.945L240.215 307.305L239.055 308.465L233.254 317.746L223.973 344.43L218.172 366.473L215.852 380.395L214.691 382.715H212.371L208.891 362.992L204.25 340.949L199.609 323.547V314.266L204.25 298.023L210.051 284.102L221.652 258.578L236.734 234.215L249.496 221.453L257.617 212.172L269.219 197.09L275.02 184.328L277.34 175.047L278.5 140.242L284.301 134.441L316.785 120.52L338.828 112.398L352.75 110.078L396.836 106.598Z" fill="#A18989"/>
<path d="M538.375 14.625H572.02L585.941 25.0664L604.504 40.1484L616.105 50.5898L614.945 61.0312L613.785 63.3516L624.227 66.832L635.828 73.793L632.348 77.2734H616.105L618.426 79.5938L611.465 78.4336L601.023 73.793L568.539 63.3516L536.055 54.0703L530.254 52.9102H522.133L514.012 62.1914L502.41 73.793L485.008 85.3945L474.566 90.0352L464.125 93.5156H438.602L384.074 88.875L375.953 85.3945L373.633 83.0742V76.1133L375.953 71.4727V64.5117L372.473 61.0312L365.512 58.7109H341.148L321.426 64.5117L305.184 72.6328L294.742 80.7539L287.781 86.5547L277.34 99.3164L265.738 114.398L242.535 143.402L232.094 156.164L218.172 172.406L201.93 189.809L189.168 202.57L179.887 210.691L163.645 224.613L148.562 238.535L140.441 248.977L132.32 264.059L130 275.66L127.68 297.703L123.039 315.105L113.758 339.469L105.637 356.871L95.1953 381.234L87.0742 403.277L84.7539 413.719V429.961L88.2344 440.402L92.875 453.164L99.8359 470.566L100.996 475.207V492.609L97.5156 503.051L89.3945 513.492L76.6328 527.414L68.5117 541.336L65.0312 551.777L63.8711 558.738V571.5L66.1914 583.102L71.9922 597.023L80.1133 609.785L90.5547 621.387L102.156 631.828L113.758 637.629H119.559L118.398 630.668L112.598 616.746L106.797 594.703L104.477 583.102L103.316 568.02V547.137L105.637 527.414L111.438 503.051L117.238 485.648L121.879 475.207L131.16 456.645L141.602 439.242L147.402 432.281H148.562V505.371L146.242 518.133L145.082 540.176L147.402 556.418L150.883 565.699L152.043 569.18H154.363V571.5H156.684L159.004 576.141L163.645 600.504L169.445 620.227L177.566 638.789L186.848 655.031L196.129 666.633L208.891 680.555L221.652 690.996L244.855 707.238L271.539 722.32L278.5 725.801L294.742 735.082L322.586 749.004L330.707 753.645L327.227 755.965L305.184 761.766L290.102 768.727L285.461 767.566L272.699 757.125L256.457 745.523L227.453 728.121L203.09 715.359L178.727 704.918L190.328 714.199L212.371 730.441L227.453 742.043L240.215 751.324L242.535 759.445L246.016 773.367L254.137 789.609L263.418 798.891L276.18 804.691L294.742 807.012L309.824 808.172H401.477L450.203 803.531L483.848 797.73L507.051 791.93L531.414 783.809L554.617 773.367L590.582 754.805L613.785 742.043L627.707 735.082L648.59 723.48L675.273 710.719L708.918 695.637L748.363 679.395L788.969 664.312L813.332 653.871L840.016 639.949L853.938 629.508L863.219 620.227L874.82 605.145L887.582 591.223L902.664 577.301L908.465 568.02L911.945 557.578V533.215L903.824 496.09L901.504 478.688V452.004L904.984 434.602L911.945 404.438L923.547 369.633L924.707 362.672V335.988L920.066 318.586L914.266 303.504L898.023 269.859L887.582 252.457L882.941 246.656V244.336L880.621 245.496L882.941 272.18V298.863L881.781 348.75L880.621 352.23L869.02 348.75L862.059 346.43V332.508L864.379 308.145V265.219L859.738 250.137V247.816L856.258 246.656H848.137L834.215 251.297H827.254L824.934 210.691L827.254 194.449L831.895 182.848L840.016 173.566L853.938 166.605L864.379 164.285L877.141 163.125H892.223L917.746 165.445L940.949 172.406L959.512 181.688L975.754 190.969L986.195 200.25L991.996 211.852L994.316 224.613V247.816L989.676 281.461L982.715 319.746V341.789L989.676 353.391L997.797 361.512L1014.04 374.273L1017.52 375.434L1026.8 384.715L1032.6 388.195L1040.72 397.477L1046.52 406.758L1047.68 416.039H1050V428.801H1047.68L1046.52 439.242L1041.88 448.523L1038.4 453.164H1036.08L1033.76 458.965L1027.96 464.766L1025.64 469.406L1023.32 470.566L1022.16 474.047L1018.68 476.367L1016.36 481.008L1012.88 483.328L1008.24 491.449L1004.76 492.609L1003.6 497.25L997.797 503.051L991.996 512.332L986.195 518.133L985.035 521.613L982.715 522.773L980.395 527.414L975.754 532.055L974.594 535.535L969.953 540.176L954.871 561.059L951.391 566.859L947.91 569.18L946.75 572.66H944.43L943.27 577.301L940.949 578.461L939.789 581.941L933.988 587.742L931.668 592.383L929.348 593.543L928.188 597.023L924.707 599.344L922.387 603.984L920.066 605.145L917.746 609.785L914.266 612.105L913.105 615.586L909.625 617.906L907.305 622.547L901.504 628.348L898.023 634.148L893.383 637.629L892.223 641.109L889.902 642.27L887.582 646.91L885.262 648.07L882.941 652.711L880.621 653.871L878.301 658.512L875.98 659.672L873.66 664.312L871.34 665.473L867.859 671.273L865.539 672.434L863.219 677.074L857.418 682.875L849.297 692.156L844.656 696.797L838.855 700.277L827.254 709.559L808.691 721.16L782.008 735.082L747.203 751.324L728.641 761.766L717.039 769.887L704.277 780.328L689.195 791.93L672.953 800.051L655.551 804.691L633.508 807.012L568.539 808.172L529.094 809.332L493.129 812.812L462.965 818.613L427 826.734L401.477 831.375L374.793 834.855H350.43L349.27 833.695L315.625 830.215V827.895L305.184 826.734L278.5 818.613L249.496 807.012L235.574 798.891L222.812 788.449L211.211 775.688L199.609 759.445L186.848 739.723L177.566 726.961L164.805 713.039L154.363 704.918L110.277 686.355L84.7539 675.914L63.8711 666.633L47.6289 656.191L39.5078 648.07L34.8672 637.629V627.188L38.3477 616.746L49.9492 600.504L55.75 594.703L54.5898 590.062L47.6289 572.66L44.1484 559.898L42.9883 548.297V536.695L46.4688 522.773L54.5898 506.531L63.8711 493.77L70.832 477.527L71.9922 471.727V454.324L66.1914 429.961L61.5508 412.559L60.3906 405.598V391.676L65.0312 373.113L76.6328 344.109L91.7148 309.305L96.3555 297.703L98.6758 288.422L99.8359 284.941H102.156L104.477 261.738L105.637 246.656H107.957L109.117 236.215L117.238 222.293L127.68 210.691L140.441 197.93L153.203 187.488L165.965 175.887H168.285V173.566L177.566 165.445L203.09 137.602L212.371 126L225.133 110.918L235.574 96.9961L249.496 79.5938L261.098 64.5117L269.219 56.3906L281.98 47.1094L300.543 37.8281L316.785 33.1875L324.906 32.0273H337.668L351.59 36.668L352.75 37.8281V48.2695L350.43 54.0703L357.391 52.9102L368.992 50.5898H416.559L440.922 44.7891L483.848 29.707L510.531 20.4258L530.254 15.7852L538.375 14.625Z" fill="#AB3739"/>
<path d="M563.898 0.703125H672.953L712.398 6.50391L748.363 13.4648L778.527 21.5859L805.211 32.0273L820.293 40.1484L841.176 54.0703L849.297 59.8711V62.1914L853.938 64.5117L862.059 71.4727V73.793L866.699 76.1133L867.859 79.5938H870.18L882.941 95.8359L891.062 108.598L899.184 124.84L902.664 134.121L908.465 163.125L911.945 165.445L892.223 164.285H877.141L857.418 166.605L843.496 172.406L835.375 179.367L829.574 190.969L827.254 200.25L826.094 216.492L828.414 250.137L826.094 252.457L815.652 255.938L813.332 258.258L811.012 264.059L809.852 272.18V303.504L813.332 320.906L821.453 341.789V347.59L819.133 345.27L812.172 326.707L807.531 311.625L801.73 283.781L794.77 265.219L787.809 253.617L779.688 243.176L764.605 231.574L749.523 222.293L733.281 213.012L706.598 200.25L672.953 184.008L649.75 174.727L652.07 172.406L661.352 171.246H672.953L726.32 177.047L733.281 178.207H773.887L785.488 174.727L786.648 170.086L780.848 165.445L758.805 157.324L724 149.203L706.598 145.723L694.996 136.441L676.434 127.16L665.992 124.84L627.707 123.68L632.348 110.918V101.637L645.109 100.477L657.871 101.637L655.551 96.9961L638.148 88.875L618.426 80.7539V78.4336L612.625 77.2734V76.1133H632.348L634.668 73.793L613.785 63.3516L614.945 50.5898L601.023 37.8281L585.941 26.2266L572.02 15.7852H538.375L519.812 19.2656L503.57 23.9062L460.645 38.9883L432.801 48.2695L416.559 51.75H368.992L357.391 54.0703L349.27 55.2305L351.59 48.2695L352.75 40.1484H353.91V49.4297L392.195 35.5078L417.719 27.3867L436.281 22.7461L465.285 15.7852L493.129 9.98438L510.531 6.50391L549.977 1.86328L563.898 0.703125Z" fill="#6A2324"/>
<path d="M522.133 51.75H530.254L556.938 58.7109L580.141 65.6719L606.824 74.9531L632.348 85.3945L653.23 94.6758L657.871 98.1562V101.637H632.348L633.508 110.918L628.867 122.52L627.707 123.68L598.703 127.16L573.18 134.121L559.258 139.922L541.855 149.203H526.773L491.969 145.723L481.527 141.082L449.043 122.52L432.801 114.398L421.199 110.918L410.758 109.758H396.836L352.75 113.238L338.828 115.559L316.785 123.68L284.301 137.602L279.66 142.242L278.5 177.047L273.859 192.129L266.898 203.73L257.617 215.332L240.215 233.895L232.094 245.496L220.492 265.219L208.891 290.742L204.25 295.383L192.648 312.785L174.086 339.469L162.484 363.832L156.684 380.074L152.043 404.438L149.723 427.641L147.402 433.441L140.441 442.723L127.68 464.766L120.719 479.848L114.918 496.09L109.117 515.812L105.637 534.375L104.477 547.137V568.02L106.797 590.062L112.598 613.266L118.398 628.348L120.719 634.148L119.559 638.789L111.438 637.629L100.996 631.828L87.0742 619.066L77.793 608.625L69.6719 595.863L63.8711 579.621L62.7109 571.5V558.738L66.1914 544.816L73.1523 530.895L94.0352 506.531L98.6758 497.25L99.8359 492.609V475.207L92.875 455.484L88.2344 443.883L84.7539 435.762L83.5938 429.961V413.719L88.2344 396.316L97.5156 373.113L111.438 340.629L117.238 327.867L124.199 308.145L127.68 290.742L130 268.699L134.641 257.098L141.602 245.496L154.363 231.574L167.125 219.973L179.887 209.531L199.609 190.969L211.211 179.367L219.332 170.086L233.254 153.844L242.535 142.242L257.617 123.68L272.699 103.957L283.141 91.1953L290.102 83.0742L301.703 73.793L313.305 66.832L335.348 58.7109L341.148 57.5508H365.512L374.793 61.0312L377.113 64.5117V71.4727L374.793 76.1133V83.0742L379.434 86.5547L397.996 88.875L438.602 92.3555H464.125L481.527 86.5547L498.93 74.9531L510.531 64.5117L519.812 55.2305L522.133 51.75Z" fill="#D65355"/>
<path d="M396.836 108.598H410.758L424.68 110.918L440.922 116.719L467.605 131.801L485.008 142.242L493.129 145.723L512.852 156.164L523.293 164.285V168.926L501.25 173.566H469.926L460.645 171.246L461.805 174.727L467.605 177.047L493.129 190.969L498.93 195.609V197.93H487.328L464.125 190.969L449.043 186.328L439.762 184.008H411.918L395.676 188.648L385.234 194.449L378.273 202.57L370.152 215.332L356.23 230.414L344.629 239.695L333.027 245.496L319.105 258.258L307.504 269.859L299.383 279.141L285.461 294.223L277.34 303.504L269.219 310.465L257.617 327.867L242.535 354.551L239.055 360.352H237.895L239.055 329.027V313.945L240.215 309.305L239.055 310.465L233.254 319.746L223.973 346.43L218.172 368.473L215.852 382.395L214.691 384.715H212.371L208.891 364.992L204.25 342.949L199.609 325.547V316.266L204.25 300.023L210.051 286.102L221.652 260.578L236.734 236.215L249.496 223.453L257.617 214.172L269.219 199.09L275.02 186.328L277.34 177.047L278.5 142.242L284.301 136.441L316.785 122.52L338.828 114.398L352.75 112.078L396.836 108.598Z" fill="#CBC0B6"/>
<path d="M880.621 244.336H882.941L894.543 261.738L911.945 295.383L920.066 315.105L924.707 330.188L925.867 335.988V362.672L922.387 376.594L913.105 404.438L904.984 439.242L902.664 452.004V478.688L906.145 501.891L913.105 533.215V557.578L908.465 570.34L900.344 580.781L882.941 597.023L870.18 612.105L860.898 623.707L851.617 632.988L834.215 644.59L798.25 661.992L763.445 674.754L730.961 687.516L708.918 696.797L675.273 711.879L648.59 724.641L623.066 738.562L591.742 754.805L566.219 768.727L537.215 782.648L514.012 790.77L498.93 795.41L465.285 802.371L440.922 805.852L401.477 809.332H309.824L283.141 807.012L272.699 804.691L262.258 798.891L252.977 789.609L243.695 771.047L240.215 752.484L225.133 740.883L212.371 731.602L179.887 707.238L177.566 703.758L184.527 706.078L214.691 720L237.895 732.762L259.938 746.684L278.5 760.605L286.621 767.566L292.422 766.406L308.664 759.445L329.547 753.645H333.027L355.07 762.926L379.434 771.047L402.637 776.848L431.641 780.328H457.164L485.008 776.848L498.93 773.367L523.293 766.406L551.137 757.125L588.262 743.203L602.184 737.402L631.188 724.641L659.031 711.879L677.594 700.277L694.996 688.676L714.719 674.754L725.16 667.793L763.445 650.391L782.008 641.109L802.891 629.508L817.973 617.906L824.934 609.785L831.895 593.543L842.336 576.141L848.137 565.699L852.777 559.898L858.578 554.098L867.859 543.656L881.781 523.934L888.742 512.332L898.023 487.969L899.184 479.848V458.965L896.863 449.684L892.223 439.242L882.941 426.48L872.5 417.199L880.621 404.438L887.582 392.836L891.062 382.395V367.312L887.582 359.191L880.621 353.391L881.781 298.863V272.18L879.461 245.496L880.621 244.336Z" fill="#D75355"/>
<path d="M95.1953 294.223H97.5156L96.3555 300.023L87.0742 323.227L74.3125 352.23L65.0312 376.594L61.5508 391.676V405.598L66.1914 426.48L71.9922 447.363L73.1523 454.324V471.727L68.5117 486.809L61.5508 499.57L53.4297 510.012L47.6289 522.773L44.1484 536.695V548.297L46.4688 563.379L52.2695 581.941L56.9102 591.223L55.75 595.863L46.4688 606.305L38.3477 619.066L36.0273 627.188V637.629L40.668 648.07L48.7891 656.191L63.8711 665.473L92.875 678.234L138.121 696.797L155.523 704.918L165.965 713.039L175.246 722.32L185.688 736.242L208.891 771.047L222.812 787.289L236.734 798.891L255.297 808.172L278.5 817.453L309.824 826.734L315.625 827.895V829.055H298.223L271.539 825.574L255.297 822.094L235.574 817.453L204.25 807.012L186.848 800.051L164.805 788.449L143.922 774.527L139.281 771.047V768.727L134.641 766.406L121.879 757.125L97.5156 738.562L85.9141 730.441L52.2695 707.238L40.668 699.117L19.7852 685.195L18.625 681.715L17.4648 612.105L11.6641 586.582L8.18359 570.34L2.38281 535.535L0.0625 511.172V467.086L3.54297 448.523L10.5039 434.602L12.8242 431.121H15.1445V428.801L27.9062 420.68L32.5469 416.039H34.8672L37.1875 410.238L45.3086 399.797L54.5898 380.074L67.3516 347.59L73.1523 332.508L84.7539 310.465L94.0352 295.383L95.1953 294.223Z" fill="#6B2324"/>
<path d="M828.414 707.238L830.734 708.398L826.094 715.359H823.773L822.613 718.84H820.293L817.973 723.48L809.852 731.602H807.531L805.211 736.242L801.73 739.723H799.41L798.25 743.203H795.93V745.523L792.449 749.004H790.129V751.324L780.848 759.445L777.367 760.605L776.207 764.086L766.926 772.207L747.203 790.77L717.039 820.934H714.719V823.254L705.438 831.375L699.637 836.016H697.316V838.336L683.395 848.777L672.953 856.898L664.832 861.539L656.711 867.34L638.148 876.621L620.746 883.582L604.504 888.223L590.582 890.543L577.82 891.703H565.059L540.695 888.223L511.691 878.941L489.648 870.82L461.805 859.219L444.402 851.098L424.68 841.816L413.078 837.176L403.797 833.695L389.875 832.535V831.375L416.559 827.895L452.523 819.773L481.527 813.973L503.57 810.492L529.094 808.172L568.539 807.012L633.508 805.852L655.551 803.531L676.434 797.73L692.676 788.449L707.758 775.688L722.84 764.086L744.883 751.324L798.25 725.801L816.812 715.359L828.414 707.238Z" fill="#6A2F23"/>
<path d="M611.465 45.9492L616.105 48.2695L617.266 54.0703L642.789 50.5898H661.352L677.594 52.9102L694.996 58.7109L707.758 65.6719L720.52 73.793L740.242 86.5547L753.004 95.8359L768.086 108.598L778.527 121.359L787.809 134.121L795.93 148.043L805.211 166.605L812.172 179.367L820.293 192.129L821.453 195.609H826.094L827.254 200.25L826.094 216.492L828.414 250.137L826.094 252.457L815.652 255.938L813.332 258.258L811.012 264.059L809.852 272.18V303.504L813.332 320.906L821.453 341.789V347.59L819.133 345.27L812.172 326.707L807.531 311.625L801.73 283.781L794.77 265.219L787.809 253.617L779.688 243.176L764.605 231.574L749.523 222.293L733.281 213.012L706.598 200.25L672.953 184.008L649.75 174.727L652.07 172.406L661.352 171.246H672.953L726.32 177.047L733.281 178.207H773.887L785.488 174.727L786.648 170.086L780.848 165.445L758.805 157.324L724 149.203L706.598 145.723L694.996 136.441L676.434 127.16L665.992 124.84L627.707 123.68L632.348 110.918V101.637L645.109 100.477L657.871 101.637L655.551 96.9961L638.148 88.875L618.426 80.7539V78.4336L612.625 77.2734V76.1133H632.348L634.668 73.793L613.785 63.3516L614.945 50.5898L611.465 45.9492Z" fill="#853F2B"/>
<path d="M467.605 217.652H480.367L549.977 224.613L554.617 238.535L563.898 252.457L567.379 259.418L561.578 258.258L545.336 248.977L529.094 242.016L524.453 240.855H510.531L496.609 244.336L493.129 245.496V247.816H490.809V265.219L496.609 283.781V289.582L489.648 288.422L480.367 284.941H464.125L439.762 288.422L427 289.582H389.875L384.074 293.062V301.184L389.875 315.105L395.676 326.707L393.355 332.508L381.754 339.469L356.23 349.91L343.469 358.031L337.668 364.992L336.508 368.473V382.395L342.309 399.797L352.75 419.52L371.312 447.363L382.914 461.285V463.605H385.234L393.355 472.887L394.516 476.367L377.113 475.207H352.75L337.668 479.848L323.746 484.488V455.484L320.266 448.523L301.703 428.801L290.102 413.719L281.98 400.957L279.66 396.316V387.035L285.461 382.395L293.582 380.074L316.785 375.434L328.387 369.633L337.668 353.391L343.469 338.309L349.27 309.305L352.75 293.062L358.551 277.98L362.031 271.02L370.152 260.578L375.953 254.777L387.555 244.336L407.277 232.734L430.48 223.453L452.523 218.812L467.605 217.652Z" fill="#C55355"/>
<path d="M697.316 287.262H699.637L700.797 289.582L703.117 319.746V367.312L698.477 382.395L690.355 395.156L681.074 407.918L676.434 416.039L675.273 427.641L679.914 445.043L691.516 471.727L690.355 477.527L684.555 478.688L660.191 476.367L636.988 471.727H627.707L619.586 477.527L618.426 479.848H616.105L613.785 484.488L602.184 497.25L594.062 506.531L589.422 508.852L588.262 512.332H584.781V514.652L574.34 522.773L560.418 533.215L546.496 540.176L533.734 541.336L523.293 537.855L512.852 530.895L498.93 518.133L485.008 504.211L478.047 494.93L475.727 493.77V491.449L471.086 489.129L460.645 481.008L454.844 476.367L452.523 475.207V472.887L446.723 470.566L435.121 460.125L418.879 447.363L413.078 442.723L411.918 438.082L416.559 436.922H437.441L443.242 431.121L447.883 417.199L451.363 414.879L453.684 423L459.484 434.602L466.445 443.883V446.203H468.766L474.566 452.004V454.324L479.207 456.645L490.809 468.246L500.09 476.367L505.891 481.008L515.172 483.328H540.695L555.777 481.008L567.379 478.688L577.82 474.047L588.262 468.246L598.703 460.125L603.344 457.805V455.484L609.145 449.684L632.348 428.801L635.828 419.52L638.148 404.438L639.309 380.074V317.426L642.789 315.105L646.27 323.227L652.07 341.789L660.191 358.031L664.832 362.672H671.793L678.754 354.551L684.555 340.629L689.195 325.547L697.316 287.262Z" fill="#865A5B"/>
<path d="M392.195 150.363H413.078L429.32 155.004L442.082 161.965L464.125 174.727L493.129 190.969L498.93 195.609V197.93H487.328L464.125 190.969L449.043 186.328L439.762 184.008H411.918L395.676 188.648L385.234 194.449L378.273 202.57L370.152 215.332L356.23 230.414L344.629 239.695L333.027 245.496L319.105 258.258L307.504 269.859L299.383 279.141L285.461 294.223L277.34 303.504L269.219 310.465L257.617 327.867L242.535 354.551L239.055 360.352L237.895 358.031L240.215 344.109V316.266L243.695 301.184L249.496 287.262L258.777 268.699L269.219 252.457L287.781 232.734L298.223 216.492L301.703 204.891L302.863 175.887L308.664 171.246L349.27 155.004L364.352 152.684L392.195 150.363Z" fill="#FEFEFE"/>
<path d="M549.977 225.773H577.82L575.5 239.695L576.66 251.297L583.621 264.059L591.742 275.66L590.582 279.141L583.621 276.82L560.418 264.059L549.977 260.578H538.375L525.613 262.898L517.492 265.219L516.332 269.859V284.941L519.812 297.703L522.133 306.984L517.492 309.305L504.73 304.664H493.129L469.926 306.984L465.285 308.145L450.203 309.305H414.238L409.598 310.465V320.906L414.238 332.508L420.039 344.109L418.879 351.07L414.238 355.711L402.637 360.352L374.793 373.113L368.992 377.754H366.672L362.031 387.035V404.438L368.992 421.84L375.953 435.762L384.074 448.523L399.156 470.566L411.918 484.488L418.879 492.609L417.719 496.09L401.477 494.93H378.273L362.031 499.57L337.668 508.852L324.906 512.332H319.105L317.945 514.652L321.426 489.129L324.906 483.328L344.629 476.367L352.75 474.047H377.113L394.516 476.367L386.395 467.086L385.234 463.605H382.914L370.152 447.363L349.27 416.039L338.828 393.996L335.348 382.395V368.473L338.828 361.512L348.109 353.391L366.672 344.109L381.754 338.309L393.355 331.348L394.516 326.707L384.074 304.664L382.914 301.184V293.062L386.395 289.582L389.875 288.422H427L464.125 283.781H480.367L496.609 289.582L489.648 265.219V251.297L490.809 247.816H493.129V245.496L500.09 242.016L510.531 239.695H524.453L540.695 245.496L562.738 258.258H566.219L558.098 245.496L552.297 235.055L549.977 229.254V225.773Z" fill="#865A5B"/>
<path d="M737.922 453.164L742.562 454.324L743.723 456.645L742.562 490.289L735.602 514.652V525.094L737.922 535.535L736.762 544.816L732.121 554.098L719.359 566.859L710.078 574.98L698.477 585.422L688.035 594.703L675.273 599.344L632.348 602.824L610.305 606.305L583.621 610.945L561.578 612.105V609.785L576.66 600.504L581.301 595.863L602.184 581.941L616.105 571.5L630.027 558.738L632.348 555.258L631.188 549.457L625.387 543.656L640.469 541.336L659.031 540.176L667.152 533.215L671.793 525.094L672.953 513.492L678.754 508.852L705.438 494.93L721.68 485.648L730.961 477.527L732.121 469.406L730.961 462.445L737.922 453.164Z" fill="#FCFCFB"/>
<path d="M558.098 551.777L562.738 552.938L565.059 554.098V556.418L570.859 558.738L577.82 559.898H588.262L627.707 556.418L631.188 558.738L621.906 568.02L610.305 577.301L590.582 591.223L580.141 598.184H577.82L576.66 601.664L563.898 609.785H561.578V612.105L589.422 608.625L610.305 605.145L627.707 603.984L626.547 612.105L619.586 616.746L603.344 621.387L573.18 624.867L527.934 627.188L538.375 632.988L537.215 636.469L524.453 642.27L505.891 646.91L479.207 650.391H464.125L457.164 644.59L452.523 636.469V634.148L464.125 629.508L468.766 627.188L469.926 623.707H472.246L474.566 617.906L481.527 606.305L486.168 597.023L487.328 585.422L483.848 568.02L482.688 558.738L487.328 559.898L500.09 573.82L502.41 578.461H504.73L510.531 584.262L516.332 588.902L527.934 592.383L540.695 593.543L547.656 592.383L552.297 588.902L554.617 584.262L556.938 554.098L558.098 551.777Z" fill="#865A5B"/>
<path d="M758.805 457.805H763.445L764.605 460.125V493.77L762.285 507.691L756.484 525.094V541.336L758.805 550.617V559.898L753.004 571.5L740.242 585.422L724 599.344L708.918 614.426L699.637 621.387L689.195 624.867L646.27 628.348L610.305 634.148L575.5 639.949H548.816L538.375 634.148L526.773 627.188V626.027L573.18 623.707L603.344 620.227L619.586 615.586L625.387 612.105L627.707 603.984L618.426 605.145L621.906 602.824L642.789 600.504L675.273 598.184L688.035 593.543L699.637 583.102L717.039 566.859L726.32 558.738L733.281 550.617L736.762 541.336L735.602 530.895L734.441 525.094V514.652L739.082 498.41L740.242 491.449L746.043 490.289L753.004 481.008L751.844 472.887L750.684 468.246L757.645 458.965L758.805 457.805Z" fill="#CCC1B7"/>
<path d="M147.402 432.281H148.562V505.371L146.242 518.133L145.082 540.176L147.402 556.418L150.883 565.699L152.043 569.18H154.363V571.5H156.684L159.004 576.141L163.645 600.504L169.445 620.227L177.566 638.789L186.848 655.031L196.129 666.633L208.891 680.555L221.652 690.996L229.773 696.797L226.293 697.957L210.051 689.836L197.289 682.875L181.047 670.113L169.445 655.031L163.645 646.91L154.363 628.348L140.441 603.984L130 592.383L116.078 579.621L111.438 571.5L107.957 559.898V530.895L109.117 519.293L112.598 504.211L116.078 487.969L121.879 475.207L131.16 456.645L141.602 439.242L147.402 432.281Z" fill="#A05B5C"/>
<path d="M701.957 142.242L712.398 145.723L744.883 152.684L769.246 159.645L782.008 165.445L787.809 170.086L786.648 174.727L777.367 178.207L773.887 179.367H733.281L697.316 174.727L672.953 172.406H661.352L642.789 174.727L626.547 179.367L604.504 188.648L601.023 192.129L596.383 193.289L591.742 181.688L583.621 168.926L584.781 165.445L607.984 156.164L627.707 148.043L634.668 143.402L642.789 144.562L657.871 149.203L685.715 155.004H704.277L706.598 153.844V148.043L701.957 142.242Z" fill="#855A5B"/>
<path d="M973.434 163.125H990.836L996.637 166.605L1002.44 173.566L1007.08 187.488L1010.56 223.453V271.02L1009.4 297.703L1004.76 362.672L1008.24 369.633L1003.6 367.312L988.516 353.391L981.555 341.789V319.746L989.676 274.5L993.156 247.816V224.613L989.676 208.371L982.715 197.93L969.953 188.648L956.031 180.527L942.109 174.727L946.75 172.406L961.832 166.605L973.434 163.125Z" fill="#6B2324"/>
<path d="M618.426 123.68H665.992L676.434 126L694.996 135.281L701.957 141.082L707.758 148.043V153.844L704.277 156.164H685.715L653.23 149.203L639.309 144.562L632.348 145.723L624.227 150.363L607.984 157.324L584.781 166.605L580.141 165.445L575.5 159.645L562.738 150.363L548.816 146.883L549.977 143.402L563.898 136.441L584.781 129.48L598.703 126L618.426 123.68Z" fill="#C25355"/>
<path d="M632.348 99.3164H648.59L657.871 100.477V101.637H632.348L633.508 110.918L628.867 122.52L627.707 123.68L598.703 127.16L573.18 134.121L559.258 139.922L541.855 149.203H526.773L491.969 145.723L486.168 142.242L487.328 139.922L518.652 128.32L546.496 120.199L609.145 103.957L632.348 99.3164Z" fill="#A06C5C"/>
<path d="M878.301 226.934L885.262 229.254L889.902 233.895L893.383 244.336L894.543 259.418L891.062 258.258L882.941 246.656V244.336L880.621 245.496L882.941 272.18V298.863L881.781 348.75L880.621 352.23L869.02 348.75L862.059 346.43V332.508L864.379 308.145V265.219L859.738 250.137V247.816L856.258 246.656H848.137L834.215 251.297H827.254V250.137L835.375 248.977L836.535 243.176L842.336 236.215L852.777 232.734L872.5 229.254L878.301 226.934Z" fill="#A06B5B"/>
<path d="M633.508 805.852H645.109V807.012L635.828 808.172L569.699 809.332L547.656 818.613L540.695 822.094L529.094 825.574L509.371 832.535L485.008 839.496L475.727 840.656H451.363L428.16 836.016L407.277 830.215V829.055L427 825.574L462.965 817.453L493.129 811.652L529.094 808.172L568.539 807.012L633.508 805.852Z" fill="#853F2B"/>
<path d="M717.039 407.918L724 410.238L736.762 416.039L749.523 420.68L756.484 421.84H778.527L792.449 420.68L790.129 426.48L780.848 442.723L772.727 455.484L766.926 463.605H764.605L763.445 457.805L757.645 460.125L751.844 468.246L753.004 472.887L754.164 481.008L747.203 490.289L744.883 492.609H741.402L742.562 456.645L741.402 454.324L736.762 455.484L732.121 460.125L727.48 441.562L719.359 420.68L715.879 413.719L717.039 407.918Z" fill="#865B5C"/>
<path d="M842.336 570.34H844.656L843.496 576.141L831.895 595.863L824.934 612.105L815.652 621.387L797.09 634.148L771.566 648.07L733.281 665.473H729.801V663.152L742.562 653.871L758.805 642.27L777.367 627.188L798.25 610.945L808.691 601.664H811.012L813.332 597.023L820.293 591.223H822.613V588.902L835.375 578.461L842.336 570.34Z" fill="#9F8B8B"/>
<path d="M632.348 99.3164H648.59L657.871 100.477V101.637H632.348L633.508 110.918L628.867 122.52L627.707 123.68L598.703 127.16L580.141 131.801L574.34 130.641L568.539 126L565.059 124.84V122.52L558.098 121.359L555.777 120.199V117.879L596.383 107.438L616.105 102.797L632.348 99.3164Z" fill="#AB5A38"/>
<path d="M560.418 597.023H569.699L577.82 599.344L573.18 603.984L563.898 609.785H561.578V612.105L589.422 608.625L610.305 605.145L627.707 603.984L626.547 612.105L619.586 616.746L603.344 621.387L573.18 624.867L525.613 627.188L524.453 624.867H545.336L546.496 613.266L549.977 605.145L558.098 598.184L560.418 597.023Z" fill="#8E90A2"/>
<path d="M280.82 298.863V302.344L271.539 310.465L278.5 319.746L288.941 329.027L297.062 334.828L295.902 337.148L271.539 339.469L249.496 345.27L247.176 346.43L249.496 339.469L264.578 315.105L272.699 305.824L280.82 298.863Z" fill="#BC9C8F"/>
<path d="M782.008 666.633L785.488 667.793L766.926 677.074L756.484 681.715L741.402 688.676L721.68 696.797L715.879 700.277L705.438 703.758L669.473 718.84L652.07 726.961L636.988 732.762L630.027 736.242L627.707 735.082L648.59 723.48L675.273 710.719L708.918 695.637L748.363 679.395L782.008 666.633Z" fill="#A06C5C"/>
<path d="M649.75 506.531L661.352 507.691L674.113 512.332L672.953 525.094L665.992 535.535L661.352 540.176L659.031 539.016L656.711 532.055L648.59 512.332L649.75 506.531Z" fill="#5A6A86"/>
<path d="M148.562 501.891H149.723L156.684 561.059V571.5H154.363V569.18H152.043L147.402 561.059L145.082 551.777L143.922 535.535L146.242 511.172L148.562 501.891Z" fill="#898CA1"/>
<path d="M808.691 303.504H809.852L813.332 320.906L821.453 341.789V347.59L819.133 345.27L812.172 326.707L807.531 311.625L808.691 303.504Z" fill="#8E4D39"/>
<path d="M181.047 767.566L188.008 768.727L189.168 769.887V775.688L186.848 778.008H181.047L178.727 775.688V769.887L181.047 767.566Z" fill="#E6DDD9"/>
<path d="M372.473 631.828L375.953 634.148L391.035 637.629L396.836 635.309L392.195 639.949L387.555 642.27H379.434L372.473 634.148V631.828Z" fill="#5A6A86"/>
<path d="M290.102 539.016L293.582 540.176L286.621 543.656L285.461 552.938L288.941 559.898L284.301 557.578L279.66 550.617V544.816L290.102 539.016Z" fill="#5A6A86"/>
<path d="M972.273 535.535L973.434 537.855L962.992 555.258L957.191 561.059L952.551 564.539L954.871 559.898L966.473 543.656L972.273 535.535Z" fill="#773727"/>
<path d="M554.617 389.355L559.258 390.516L560.418 396.316L558.098 398.637L553.457 397.477L551.137 396.316L552.297 390.516L554.617 389.355Z" fill="#F8F7F6"/>
<path d="M552.297 387.035L560.418 389.355L563.898 396.316L558.098 399.797L552.297 398.637L548.816 396.316L549.977 390.516L552.297 387.035ZM554.617 389.355L551.137 391.676V396.316L554.617 398.637L559.258 397.477L560.418 391.676L558.098 389.355H554.617Z" fill="#90939F"/>
<path d="M878.301 407.918H879.461V421.84L873.66 418.359V414.879L878.301 407.918Z" fill="#A06C5C"/>
<path d="M959.512 434.602L964.152 435.762V441.562L959.512 442.723L957.191 440.402V435.762L959.512 434.602Z" fill="#CC8E66"/>
<path d="M112.598 499.57L113.758 504.211L110.277 519.293L107.957 521.613L109.117 511.172L112.598 499.57Z" fill="#AC5A38"/>
<path d="M936.309 240.855L940.949 242.016L939.789 247.816L933.988 246.656L935.148 242.016L936.309 240.855Z" fill="#CC8F67"/>
</svg>
