<svg width="1050" height="891" viewBox="0 0 1050 891" fill="none" xmlns="http://www.w3.org/2000/svg">
<path d="M538.312 13.9219H571.957L585.879 24.3633L604.441 39.4453L616.043 49.8867L614.883 60.3281L613.723 62.6484L624.164 66.1289L635.766 73.0898L632.285 76.5703H616.043L618.363 77.7305V80.0508L629.965 83.5312L653.168 93.9727L657.809 97.4531V100.934H632.285L633.445 110.215L628.805 121.816L665.93 122.977L676.371 125.297L694.934 134.578L706.535 143.859L744.82 151.98L769.184 158.941L781.945 164.742L787.746 169.383L786.586 174.023L777.305 177.504L773.824 178.664H733.219L697.254 174.023L672.891 171.703H661.289L652.008 172.863L655.488 175.184L679.852 185.625L718.137 204.188L736.699 213.469L759.902 226.23L774.984 237.832L780.785 242.473L792.387 257.555L800.508 276.117L806.309 298.16L810.949 319.043L815.59 332.965L820.23 344.566L817.91 334.125L810.949 315.562L808.629 302.801V271.477L809.789 263.355L813.27 256.395L820.23 251.754L827.191 249.434L824.871 209.988L827.191 193.746L831.832 182.145L839.953 172.863L853.875 165.902L864.316 163.582L877.078 162.422H892.16L917.684 164.742L940.887 171.703L959.449 180.984L975.691 190.266L986.133 199.547L991.934 211.148L994.254 223.91V247.113L989.613 280.758L982.652 319.043V341.086L989.613 352.688L997.734 360.809L1013.98 373.57L1017.46 374.73L1026.74 384.012L1032.54 387.492L1040.66 396.773L1046.46 406.055L1047.62 415.336H1049.94V428.098H1047.62L1046.46 438.539L1041.82 447.82L1038.34 452.461H1036.02L1033.7 458.262L1027.9 464.062L1025.58 468.703L1023.26 469.863L1022.1 473.344L1018.62 475.664L1016.3 480.305L1012.82 482.625L1008.18 490.746L1004.7 491.906L1003.54 496.547L997.734 502.348L991.934 511.629L986.133 517.43L984.973 520.91L982.652 522.07L980.332 526.711L975.691 531.352L974.531 534.832L969.891 539.473L954.809 560.355L951.328 566.156L947.848 568.477L946.688 571.957H944.367L943.207 576.598L940.887 577.758L939.727 581.238L933.926 587.039L931.605 591.68L929.285 592.84L928.125 596.32L924.645 598.641L922.324 603.281L920.004 604.441L917.684 609.082L914.203 611.402L913.043 614.883L909.562 617.203L907.242 621.844L901.441 627.645L897.961 633.445L893.32 636.926L892.16 640.406L889.84 641.566L887.52 646.207L885.199 647.367L882.879 652.008L880.559 653.168L878.238 657.809L875.918 658.969L873.598 663.609L871.277 664.77L867.797 670.57L865.477 671.73L863.156 676.371L857.355 682.172L849.234 691.453L844.594 696.094L838.793 699.574L827.191 708.855L808.629 720.457L781.945 734.379L747.141 750.621L728.578 761.062L716.977 769.184L704.215 779.625L689.133 791.227L672.891 799.348L655.488 803.988L633.445 806.309L568.477 807.469L529.031 808.629L493.066 812.109L462.902 817.91L426.938 826.031L401.414 830.672L374.73 834.152H350.367L349.207 832.992L315.562 829.512V827.191L305.121 826.031L278.438 817.91L249.434 806.309L235.512 798.188L222.75 787.746L211.148 774.984L199.547 758.742L186.785 739.02L177.504 726.258L164.742 712.336L154.301 704.215L110.215 685.652L84.6914 675.211L63.8086 665.93L47.5664 655.488L39.4453 647.367L34.8047 636.926V626.484L38.2852 616.043L49.8867 599.801L55.6875 594L54.5273 589.359L47.5664 571.957L44.0859 559.195L42.9258 547.594V535.992L46.4062 522.07L54.5273 505.828L63.8086 493.066L70.7695 476.824L71.9297 471.023V453.621L66.1289 429.258L61.4883 411.855L60.3281 404.895V390.973L64.9688 372.41L76.5703 343.406L91.6523 308.602L96.293 297L98.6133 287.719L99.7734 284.238H102.094L104.414 261.035L105.574 245.953H107.895L109.055 235.512L117.176 221.59L127.617 209.988L140.379 197.227L153.141 186.785L165.902 175.184H168.223V172.863L177.504 164.742L203.027 136.898L212.309 125.297L225.07 110.215L235.512 96.293L249.434 78.8906L261.035 63.8086L269.156 55.6875L281.918 46.4062L300.48 37.125L316.723 32.4844L324.844 31.3242H337.605L351.527 35.9648L352.688 37.125V47.5664L350.367 53.3672L357.328 52.207L368.93 49.8867H416.496L440.859 44.0859L483.785 29.0039L510.469 19.7227L530.191 15.082L538.312 13.9219Z" fill="#BA8A8B"/>
<path d="M701.895 141.539L712.336 145.02L744.82 151.98L769.184 158.941L781.945 164.742L787.746 169.383L786.586 174.023L777.305 177.504L773.824 178.664H733.219L697.254 174.023L672.891 171.703H661.289L652.008 172.863L655.488 175.184L679.852 185.625L718.137 204.188L736.699 213.469L759.902 226.23L774.984 237.832L780.785 242.473L792.387 257.555L800.508 276.117L806.309 298.16L810.949 319.043L815.59 332.965L820.23 344.566H822.551V353.848L819.07 368.93L809.789 389.812L794.707 418.816L780.785 442.02L772.664 454.781L766.863 462.902H764.543L763.383 457.102L757.582 459.422L751.781 467.543L752.941 472.184L754.102 480.305L747.141 489.586L744.82 491.906H741.34L742.5 455.941L741.34 453.621L736.699 454.781L732.059 461.742L733.219 473.344L729.738 479.145L721.617 486.105L696.094 500.027L676.371 510.469L674.051 512.789L672.891 524.391L665.93 534.832L658.969 540.633L628.805 542.953L626.484 544.113L632.285 548.754L633.445 554.555L623.004 566.156L610.242 576.598L590.52 590.52L580.078 597.48H577.758L576.598 600.961L563.836 609.082H561.516V611.402L589.359 607.922L610.242 604.441L627.645 603.281L626.484 611.402L619.523 616.043L603.281 620.684L573.117 624.164L527.871 626.484L538.312 632.285L537.152 635.766L524.391 641.566L505.828 646.207L479.145 649.688H464.062L457.102 643.887L440.859 612.562L433.898 604.441H428.098L414.176 619.523L409.535 625.324L400.254 633.445L389.812 640.406L387.492 641.566H379.371L367.77 627.645L355.008 619.523L341.086 606.762L322.523 589.359L306.281 575.438L293.52 564.996L284.238 556.875L279.598 549.914V544.113L290.039 538.312L303.961 531.352L312.082 523.23L317.883 510.469L321.363 488.426L324.844 482.625L344.566 475.664L352.688 473.344H377.051L394.453 475.664L386.332 466.383L385.172 462.902H382.852L370.09 446.66L349.207 415.336L338.766 393.293L335.285 381.691V367.77L338.766 360.809L348.047 352.688L366.609 343.406L381.691 337.605L393.293 330.645L394.453 326.004L384.012 303.961L382.852 300.48V292.359L386.332 288.879L389.812 287.719H426.938L464.062 283.078H480.305L496.547 288.879L489.586 264.516V250.594L490.746 247.113H493.066V244.793L500.027 241.312L510.469 238.992H524.391L540.633 244.793L562.676 257.555H566.156L558.035 244.793L552.234 234.352L549.914 228.551V225.07L580.078 223.91L591.68 219.27L595.16 215.789L597.48 207.668V193.746L588.199 175.184L583.559 168.223L584.719 164.742L607.922 155.461L627.645 147.34L634.605 142.699L642.727 143.859L657.809 148.5L685.652 154.301H704.215L706.535 153.141V147.34L701.895 141.539Z" fill="#765A5A"/>
<path d="M396.773 105.895H410.695L424.617 108.215L440.859 114.016L467.543 129.098L484.945 139.539L491.906 141.859L526.711 145.34H541.793L560.355 134.898L584.719 126.777L598.641 123.297L618.363 120.977H665.93L676.371 123.297L694.934 132.578L701.895 138.379L707.695 145.34V151.141L704.215 153.461H685.652L653.168 146.5L639.246 141.859L632.285 143.02L624.164 147.66L607.922 154.621L584.719 163.902L587.039 169.703L594 181.305L598.641 191.746V205.668L595.16 214.949L589.359 219.59L580.078 223.07H549.914L555.715 236.992L563.836 249.754L567.316 256.715L561.516 255.555L545.273 246.273L529.031 239.312L524.391 238.152H510.469L496.547 241.633L493.066 242.793V245.113H490.746V262.516L496.547 281.078V286.879L489.586 285.719L480.305 282.238H464.062L439.699 285.719L426.938 286.879H389.812L384.012 290.359V298.48L389.812 312.402L395.613 324.004L393.293 329.805L381.691 336.766L356.168 347.207L343.406 355.328L337.605 362.289L336.445 365.77V379.691L342.246 397.094L352.688 416.816L371.25 444.66L382.852 458.582V460.902H385.172L393.293 470.184L394.453 473.664L377.051 472.504H352.688L337.605 477.145L323.684 482.945L321.363 493.387L319.043 508.469L312.082 522.391L303.961 530.512L280.758 542.113L281.918 550.234L286.559 556.035L295.84 564.156L308.602 574.598L326.004 589.68L345.727 608.242L356.168 617.523L368.93 625.645L379.371 638.406H387.492L399.094 631.445L422.297 608.242L428.098 601.281H433.898L442.02 610.562L454.781 636.086L461.742 645.367L464.062 646.527H479.145L512.789 641.887L530.191 636.086L537.152 632.605V630.285L526.711 624.484V623.324L573.117 621.004L603.281 617.523L619.523 612.883L625.324 609.402L627.645 601.281L624.164 602.441L603.281 604.762L583.559 608.242L561.516 609.402V607.082L576.598 597.801L581.238 593.16L602.121 579.238L616.043 568.797L629.965 556.035L632.285 552.555L631.125 546.754L625.324 540.953L640.406 538.633L658.969 537.473L667.09 530.512L671.73 522.391L672.891 510.789L678.691 506.148L705.375 492.227L721.617 482.945L730.898 474.824L732.059 466.703L730.898 459.742L737.859 450.461L742.5 451.621L743.66 453.941L742.5 487.586L741.34 489.906L747.141 486.426L752.941 478.305L751.781 470.184L750.621 465.543L757.582 456.262L763.383 455.102L764.543 460.902L769.184 456.262L783.105 434.219L797.027 409.855L813.27 378.531L819.07 364.609L821.391 351.848V342.566L812.109 318.203L808.629 300.801V269.477L809.789 261.355L813.27 254.395L820.23 249.754L837.633 246.273L848.074 242.793H856.195L860.836 247.434L865.477 262.516V305.441L861.996 342.566L860.836 343.727L850.395 344.887L841.113 349.527L831.832 359.969L822.551 376.211L815.59 393.613L809.789 409.855L799.348 444.66L793.547 466.703L787.746 489.906L781.945 509.629L773.824 538.633L761.062 574.598L750.621 596.641L742.5 608.242L735.539 617.523H733.219V619.844L720.457 629.125L710.016 634.926L693.773 645.367L679.852 652.328L662.449 660.449L648.527 663.93L600.961 665.09L584.719 666.25L560.355 669.73L530.191 675.531L488.426 677.852L455.941 681.332L437.379 685.973L424.617 690.613L413.016 696.414L410.695 698.734H403.734L396.773 690.613L387.492 673.211L381.691 661.609L378.211 660.449L377.051 665.09L372.41 672.051L359.648 680.172L349.207 683.652H331.805L326.004 680.172L323.684 672.051L324.844 650.008L331.805 612.883L332.965 600.121L327.164 603.602L316.723 617.523H313.242L310.922 622.164L301.641 627.965L292.359 631.445L283.078 632.605H270.316L259.875 631.445L241.312 624.484L230.871 608.242L226.23 597.801L225.07 582.719L228.551 572.277L237.832 560.676L245.953 552.555L244.793 546.754L234.352 540.953L228.551 536.312L222.75 528.191L221.59 524.711V515.43L228.551 503.828L244.793 492.227L262.195 482.945L261.035 478.305L252.914 470.184L240.152 459.742L230.871 450.461L228.551 449.301L227.391 440.02L229.711 434.219L237.832 427.258L248.273 422.617L264.516 417.977L266.836 413.336L262.195 408.695V406.375L256.395 404.055L240.152 391.293L234.352 385.492L228.551 378.531L227.391 373.891V365.77L232.031 354.168L237.832 349.527L238.992 336.766V311.242L240.152 306.602L238.992 307.762L233.191 317.043L223.91 343.727L218.109 365.77L215.789 379.691L214.629 382.012H212.309L208.828 362.289L204.188 340.246L199.547 322.844V313.562L204.188 297.32L209.988 283.398L221.59 257.875L236.672 233.512L249.434 220.75L257.555 211.469L269.156 196.387L274.957 183.625L277.277 174.344L278.438 139.539L284.238 133.738L316.723 119.816L338.766 111.695L352.688 109.375L396.773 105.895Z" fill="#A18989"/>
<path d="M538.312 13.9219H571.957L585.879 24.3633L604.441 39.4453L616.043 49.8867L614.883 60.3281L613.723 62.6484L624.164 66.1289L635.766 73.0898L632.285 76.5703H616.043L618.363 78.8906L611.402 77.7305L600.961 73.0898L568.477 62.6484L535.992 53.3672L530.191 52.207H522.07L513.949 61.4883L502.348 73.0898L484.945 84.6914L474.504 89.332L464.062 92.8125H438.539L384.012 88.1719L375.891 84.6914L373.57 82.3711V75.4102L375.891 70.7695V63.8086L372.41 60.3281L365.449 58.0078H341.086L321.363 63.8086L305.121 71.9297L294.68 80.0508L287.719 85.8516L277.277 98.6133L265.676 113.695L242.473 142.699L232.031 155.461L218.109 171.703L201.867 189.105L189.105 201.867L179.824 209.988L163.582 223.91L148.5 237.832L140.379 248.273L132.258 263.355L129.938 274.957L127.617 297L122.977 314.402L113.695 338.766L105.574 356.168L95.1328 380.531L87.0117 402.574L84.6914 413.016V429.258L88.1719 439.699L92.8125 452.461L99.7734 469.863L100.934 474.504V491.906L97.4531 502.348L89.332 512.789L76.5703 526.711L68.4492 540.633L64.9688 551.074L63.8086 558.035V570.797L66.1289 582.398L71.9297 596.32L80.0508 609.082L90.4922 620.684L102.094 631.125L113.695 636.926H119.496L118.336 629.965L112.535 616.043L106.734 594L104.414 582.398L103.254 567.316V546.434L105.574 526.711L111.375 502.348L117.176 484.945L121.816 474.504L131.098 455.941L141.539 438.539L147.34 431.578H148.5V504.668L146.18 517.43L145.02 539.473L147.34 555.715L150.82 564.996L151.98 568.477H154.301V570.797H156.621L158.941 575.438L163.582 599.801L169.383 619.523L177.504 638.086L186.785 654.328L196.066 665.93L208.828 679.852L221.59 690.293L244.793 706.535L271.477 721.617L278.438 725.098L294.68 734.379L322.523 748.301L330.645 752.941L327.164 755.262L305.121 761.062L290.039 768.023L285.398 766.863L272.637 756.422L256.395 744.82L227.391 727.418L203.027 714.656L178.664 704.215L190.266 713.496L212.309 729.738L227.391 741.34L240.152 750.621L242.473 758.742L245.953 772.664L254.074 788.906L263.355 798.188L276.117 803.988L294.68 806.309L309.762 807.469H401.414L450.141 802.828L483.785 797.027L506.988 791.227L531.352 783.105L554.555 772.664L590.52 754.102L613.723 741.34L627.645 734.379L648.527 722.777L675.211 710.016L708.855 694.934L748.301 678.691L788.906 663.609L813.27 653.168L839.953 639.246L853.875 628.805L863.156 619.523L874.758 604.441L887.52 590.52L902.602 576.598L908.402 567.316L911.883 556.875V532.512L903.762 495.387L901.441 477.984V451.301L904.922 433.898L911.883 403.734L923.484 368.93L924.645 361.969V335.285L920.004 317.883L914.203 302.801L897.961 269.156L887.52 251.754L882.879 245.953V243.633L880.559 244.793L882.879 271.477V298.16L881.719 348.047L880.559 351.527L868.957 348.047L861.996 345.727V331.805L864.316 307.441V264.516L859.676 249.434V247.113L856.195 245.953H848.074L834.152 250.594H827.191L824.871 209.988L827.191 193.746L831.832 182.145L839.953 172.863L853.875 165.902L864.316 163.582L877.078 162.422H892.16L917.684 164.742L940.887 171.703L959.449 180.984L975.691 190.266L986.133 199.547L991.934 211.148L994.254 223.91V247.113L989.613 280.758L982.652 319.043V341.086L989.613 352.688L997.734 360.809L1013.98 373.57L1017.46 374.73L1026.74 384.012L1032.54 387.492L1040.66 396.773L1046.46 406.055L1047.62 415.336H1049.94V428.098H1047.62L1046.46 438.539L1041.82 447.82L1038.34 452.461H1036.02L1033.7 458.262L1027.9 464.062L1025.58 468.703L1023.26 469.863L1022.1 473.344L1018.62 475.664L1016.3 480.305L1012.82 482.625L1008.18 490.746L1004.7 491.906L1003.54 496.547L997.734 502.348L991.934 511.629L986.133 517.43L984.973 520.91L982.652 522.07L980.332 526.711L975.691 531.352L974.531 534.832L969.891 539.473L954.809 560.355L951.328 566.156L947.848 568.477L946.688 571.957H944.367L943.207 576.598L940.887 577.758L939.727 581.238L933.926 587.039L931.605 591.68L929.285 592.84L928.125 596.32L924.645 598.641L922.324 603.281L920.004 604.441L917.684 609.082L914.203 611.402L913.043 614.883L909.562 617.203L907.242 621.844L901.441 627.645L897.961 633.445L893.32 636.926L892.16 640.406L889.84 641.566L887.52 646.207L885.199 647.367L882.879 652.008L880.559 653.168L878.238 657.809L875.918 658.969L873.598 663.609L871.277 664.77L867.797 670.57L865.477 671.73L863.156 676.371L857.355 682.172L849.234 691.453L844.594 696.094L838.793 699.574L827.191 708.855L808.629 720.457L781.945 734.379L747.141 750.621L728.578 761.062L716.977 769.184L704.215 779.625L689.133 791.227L672.891 799.348L655.488 803.988L633.445 806.309L568.477 807.469L529.031 808.629L493.066 812.109L462.902 817.91L426.938 826.031L401.414 830.672L374.73 834.152H350.367L349.207 832.992L315.562 829.512V827.191L305.121 826.031L278.438 817.91L249.434 806.309L235.512 798.188L222.75 787.746L211.148 774.984L199.547 758.742L186.785 739.02L177.504 726.258L164.742 712.336L154.301 704.215L110.215 685.652L84.6914 675.211L63.8086 665.93L47.5664 655.488L39.4453 647.367L34.8047 636.926V626.484L38.2852 616.043L49.8867 599.801L55.6875 594L54.5273 589.359L47.5664 571.957L44.0859 559.195L42.9258 547.594V535.992L46.4062 522.07L54.5273 505.828L63.8086 493.066L70.7695 476.824L71.9297 471.023V453.621L66.1289 429.258L61.4883 411.855L60.3281 404.895V390.973L64.9688 372.41L76.5703 343.406L91.6523 308.602L96.293 297L98.6133 287.719L99.7734 284.238H102.094L104.414 261.035L105.574 245.953H107.895L109.055 235.512L117.176 221.59L127.617 209.988L140.379 197.227L153.141 186.785L165.902 175.184H168.223V172.863L177.504 164.742L203.027 136.898L212.309 125.297L225.07 110.215L235.512 96.293L249.434 78.8906L261.035 63.8086L269.156 55.6875L281.918 46.4062L300.48 37.125L316.723 32.4844L324.844 31.3242H337.605L351.527 35.9648L352.688 37.125V47.5664L350.367 53.3672L357.328 52.207L368.93 49.8867H416.496L440.859 44.0859L483.785 29.0039L510.469 19.7227L530.191 15.082L538.312 13.9219Z" fill="#AB3739"/>
<path d="M563.836 0H672.891L712.336 5.80078L748.301 12.7617L778.465 20.8828L805.148 31.3242L820.23 39.4453L841.113 53.3672L849.234 59.168V61.4883L853.875 63.8086L861.996 70.7695V73.0898L866.637 75.4102L867.797 78.8906H870.117L882.879 95.1328L891 107.895L899.121 124.137L902.602 133.418L908.402 162.422L911.883 164.742L892.16 163.582H877.078L857.355 165.902L843.434 171.703L835.312 178.664L829.512 190.266L827.191 199.547L826.031 215.789L828.352 249.434L826.031 251.754L815.59 255.234L813.27 257.555L810.949 263.355L809.789 271.477V302.801L813.27 320.203L821.391 341.086V346.887L819.07 344.566L812.109 326.004L807.469 310.922L801.668 283.078L794.707 264.516L787.746 252.914L779.625 242.473L764.543 230.871L749.461 221.59L733.219 212.309L706.535 199.547L672.891 183.305L649.688 174.023L652.008 171.703L661.289 170.543H672.891L726.258 176.344L733.219 177.504H773.824L785.426 174.023L786.586 169.383L780.785 164.742L758.742 156.621L723.938 148.5L706.535 145.02L694.934 135.738L676.371 126.457L665.93 124.137L627.645 122.977L632.285 110.215V100.934L645.047 99.7734L657.809 100.934L655.488 96.293L638.086 88.1719L618.363 80.0508V77.7305L612.562 76.5703V75.4102H632.285L634.605 73.0898L613.723 62.6484L614.883 49.8867L600.961 37.125L585.879 25.5234L571.957 15.082H538.312L519.75 18.5625L503.508 23.2031L460.582 38.2852L432.738 47.5664L416.496 51.0469H368.93L357.328 53.3672L349.207 54.5273L351.527 47.5664L352.688 39.4453H353.848V48.7266L392.133 34.8047L417.656 26.6836L436.219 22.043L465.223 15.082L493.066 9.28125L510.469 5.80078L549.914 1.16016L563.836 0Z" fill="#6A2324"/>
<path d="M522.07 51.0469H530.191L556.875 58.0078L580.078 64.9688L606.762 74.25L632.285 84.6914L653.168 93.9727L657.809 97.4531V100.934H632.285L633.445 110.215L628.805 121.816L627.645 122.977L598.641 126.457L573.117 133.418L559.195 139.219L541.793 148.5H526.711L491.906 145.02L481.465 140.379L448.98 121.816L432.738 113.695L421.137 110.215L410.695 109.055H396.773L352.688 112.535L338.766 114.855L316.723 122.977L284.238 136.898L279.598 141.539L278.438 176.344L273.797 191.426L266.836 203.027L257.555 214.629L240.152 233.191L232.031 244.793L220.43 264.516L208.828 290.039L204.188 294.68L192.586 312.082L174.023 338.766L162.422 363.129L156.621 379.371L151.98 403.734L149.66 426.938L147.34 432.738L140.379 442.02L127.617 464.062L120.656 479.145L114.855 495.387L109.055 515.109L105.574 533.672L104.414 546.434V567.316L106.734 589.359L112.535 612.562L118.336 627.645L120.656 633.445L119.496 638.086L111.375 636.926L100.934 631.125L87.0117 618.363L77.7305 607.922L69.6094 595.16L63.8086 578.918L62.6484 570.797V558.035L66.1289 544.113L73.0898 530.191L93.9727 505.828L98.6133 496.547L99.7734 491.906V474.504L92.8125 454.781L88.1719 443.18L84.6914 435.059L83.5312 429.258V413.016L88.1719 395.613L97.4531 372.41L111.375 339.926L117.176 327.164L124.137 307.441L127.617 290.039L129.938 267.996L134.578 256.395L141.539 244.793L154.301 230.871L167.062 219.27L179.824 208.828L199.547 190.266L211.148 178.664L219.27 169.383L233.191 153.141L242.473 141.539L257.555 122.977L272.637 103.254L283.078 90.4922L290.039 82.3711L301.641 73.0898L313.242 66.1289L335.285 58.0078L341.086 56.8477H365.449L374.73 60.3281L377.051 63.8086V70.7695L374.73 75.4102V82.3711L379.371 85.8516L397.934 88.1719L438.539 91.6523H464.062L481.465 85.8516L498.867 74.25L510.469 63.8086L519.75 54.5273L522.07 51.0469Z" fill="#D65355"/>
<path d="M396.773 107.895H410.695L424.617 110.215L440.859 116.016L467.543 131.098L484.945 141.539L493.066 145.02L512.789 155.461L523.23 163.582V168.223L501.188 172.863H469.863L460.582 170.543L461.742 174.023L467.543 176.344L493.066 190.266L498.867 194.906V197.227H487.266L464.062 190.266L448.98 185.625L439.699 183.305H411.855L395.613 187.945L385.172 193.746L378.211 201.867L370.09 214.629L356.168 229.711L344.566 238.992L332.965 244.793L319.043 257.555L307.441 269.156L299.32 278.438L285.398 293.52L277.277 302.801L269.156 309.762L257.555 327.164L242.473 353.848L238.992 359.648H237.832L238.992 328.324V313.242L240.152 308.602L238.992 309.762L233.191 319.043L223.91 345.727L218.109 367.77L215.789 381.691L214.629 384.012H212.309L208.828 364.289L204.188 342.246L199.547 324.844V315.562L204.188 299.32L209.988 285.398L221.59 259.875L236.672 235.512L249.434 222.75L257.555 213.469L269.156 198.387L274.957 185.625L277.277 176.344L278.438 141.539L284.238 135.738L316.723 121.816L338.766 113.695L352.688 111.375L396.773 107.895Z" fill="#CBC0B6"/>
<path d="M880.559 243.633H882.879L894.48 261.035L911.883 294.68L920.004 314.402L924.645 329.484L925.805 335.285V361.969L922.324 375.891L913.043 403.734L904.922 438.539L902.602 451.301V477.984L906.082 501.188L913.043 532.512V556.875L908.402 569.637L900.281 580.078L882.879 596.32L870.117 611.402L860.836 623.004L851.555 632.285L834.152 643.887L798.188 661.289L763.383 674.051L730.898 686.812L708.855 696.094L675.211 711.176L648.527 723.938L623.004 737.859L591.68 754.102L566.156 768.023L537.152 781.945L513.949 790.066L498.867 794.707L465.223 801.668L440.859 805.148L401.414 808.629H309.762L283.078 806.309L272.637 803.988L262.195 798.188L252.914 788.906L243.633 770.344L240.152 751.781L225.07 740.18L212.309 730.898L179.824 706.535L177.504 703.055L184.465 705.375L214.629 719.297L237.832 732.059L259.875 745.98L278.438 759.902L286.559 766.863L292.359 765.703L308.602 758.742L329.484 752.941H332.965L355.008 762.223L379.371 770.344L402.574 776.145L431.578 779.625H457.102L484.945 776.145L498.867 772.664L523.23 765.703L551.074 756.422L588.199 742.5L602.121 736.699L631.125 723.938L658.969 711.176L677.531 699.574L694.934 687.973L714.656 674.051L725.098 667.09L763.383 649.688L781.945 640.406L802.828 628.805L817.91 617.203L824.871 609.082L831.832 592.84L842.273 575.438L848.074 564.996L852.715 559.195L858.516 553.395L867.797 542.953L881.719 523.23L888.68 511.629L897.961 487.266L899.121 479.145V458.262L896.801 448.98L892.16 438.539L882.879 425.777L872.438 416.496L880.559 403.734L887.52 392.133L891 381.691V366.609L887.52 358.488L880.559 352.688L881.719 298.16V271.477L879.398 244.793L880.559 243.633Z" fill="#D75355"/>
<path d="M95.1328 293.52H97.4531L96.293 299.32L87.0117 322.523L74.25 351.527L64.9688 375.891L61.4883 390.973V404.895L66.1289 425.777L71.9297 446.66L73.0898 453.621V471.023L68.4492 486.105L61.4883 498.867L53.3672 509.309L47.5664 522.07L44.0859 535.992V547.594L46.4062 562.676L52.207 581.238L56.8477 590.52L55.6875 595.16L46.4062 605.602L38.2852 618.363L35.9648 626.484V636.926L40.6055 647.367L48.7266 655.488L63.8086 664.77L92.8125 677.531L138.059 696.094L155.461 704.215L165.902 712.336L175.184 721.617L185.625 735.539L208.828 770.344L222.75 786.586L236.672 798.188L255.234 807.469L278.438 816.75L309.762 826.031L315.562 827.191V828.352H298.16L271.477 824.871L255.234 821.391L235.512 816.75L204.188 806.309L186.785 799.348L164.742 787.746L143.859 773.824L139.219 770.344V768.023L134.578 765.703L121.816 756.422L97.4531 737.859L85.8516 729.738L52.207 706.535L40.6055 698.414L19.7227 684.492L18.5625 681.012L17.4023 611.402L11.6016 585.879L8.12109 569.637L2.32031 534.832L0 510.469V466.383L3.48047 447.82L10.4414 433.898L12.7617 430.418H15.082V428.098L27.8438 419.977L32.4844 415.336H34.8047L37.125 409.535L45.2461 399.094L54.5273 379.371L67.2891 346.887L73.0898 331.805L84.6914 309.762L93.9727 294.68L95.1328 293.52Z" fill="#6B2324"/>
<path d="M828.352 706.535L830.672 707.695L826.031 714.656H823.711L822.551 718.137H820.23L817.91 722.777L809.789 730.898H807.469L805.148 735.539L801.668 739.02H799.348L798.188 742.5H795.867V744.82L792.387 748.301H790.066V750.621L780.785 758.742L777.305 759.902L776.145 763.383L766.863 771.504L747.141 790.066L716.977 820.23H714.656V822.551L705.375 830.672L699.574 835.312H697.254V837.633L683.332 848.074L672.891 856.195L664.77 860.836L656.648 866.637L638.086 875.918L620.684 882.879L604.441 887.52L590.52 889.84L577.758 891H564.996L540.633 887.52L511.629 878.238L489.586 870.117L461.742 858.516L444.34 850.395L424.617 841.113L413.016 836.473L403.734 832.992L389.812 831.832V830.672L416.496 827.191L452.461 819.07L481.465 813.27L503.508 809.789L529.031 807.469L568.477 806.309L633.445 805.148L655.488 802.828L676.371 797.027L692.613 787.746L707.695 774.984L722.777 763.383L744.82 750.621L798.188 725.098L816.75 714.656L828.352 706.535Z" fill="#6A2F23"/>
<path d="M611.402 45.2461L616.043 47.5664L617.203 53.3672L642.727 49.8867H661.289L677.531 52.207L694.934 58.0078L707.695 64.9688L720.457 73.0898L740.18 85.8516L752.941 95.1328L768.023 107.895L778.465 120.656L787.746 133.418L795.867 147.34L805.148 165.902L812.109 178.664L820.23 191.426L821.391 194.906H826.031L827.191 199.547L826.031 215.789L828.352 249.434L826.031 251.754L815.59 255.234L813.27 257.555L810.949 263.355L809.789 271.477V302.801L813.27 320.203L821.391 341.086V346.887L819.07 344.566L812.109 326.004L807.469 310.922L801.668 283.078L794.707 264.516L787.746 252.914L779.625 242.473L764.543 230.871L749.461 221.59L733.219 212.309L706.535 199.547L672.891 183.305L649.688 174.023L652.008 171.703L661.289 170.543H672.891L726.258 176.344L733.219 177.504H773.824L785.426 174.023L786.586 169.383L780.785 164.742L758.742 156.621L723.938 148.5L706.535 145.02L694.934 135.738L676.371 126.457L665.93 124.137L627.645 122.977L632.285 110.215V100.934L645.047 99.7734L657.809 100.934L655.488 96.293L638.086 88.1719L618.363 80.0508V77.7305L612.562 76.5703V75.4102H632.285L634.605 73.0898L613.723 62.6484L614.883 49.8867L611.402 45.2461Z" fill="#853F2B"/>
<path d="M467.543 216.949H480.305L549.914 223.91L554.555 237.832L563.836 251.754L567.316 258.715L561.516 257.555L545.273 248.273L529.031 241.312L524.391 240.152H510.469L496.547 243.633L493.066 244.793V247.113H490.746V264.516L496.547 283.078V288.879L489.586 287.719L480.305 284.238H464.062L439.699 287.719L426.938 288.879H389.812L384.012 292.359V300.48L389.812 314.402L395.613 326.004L393.293 331.805L381.691 338.766L356.168 349.207L343.406 357.328L337.605 364.289L336.445 367.77V381.691L342.246 399.094L352.688 418.816L371.25 446.66L382.852 460.582V462.902H385.172L393.293 472.184L394.453 475.664L377.051 474.504H352.688L337.605 479.145L323.684 483.785V454.781L320.203 447.82L301.641 428.098L290.039 413.016L281.918 400.254L279.598 395.613V386.332L285.398 381.691L293.52 379.371L316.723 374.73L328.324 368.93L337.605 352.688L343.406 337.605L349.207 308.602L352.688 292.359L358.488 277.277L361.969 270.316L370.09 259.875L375.891 254.074L387.492 243.633L407.215 232.031L430.418 222.75L452.461 218.109L467.543 216.949Z" fill="#C55355"/>
<path d="M697.254 286.559H699.574L700.734 288.879L703.055 319.043V366.609L698.414 381.691L690.293 394.453L681.012 407.215L676.371 415.336L675.211 426.938L679.852 444.34L691.453 471.023L690.293 476.824L684.492 477.984L660.129 475.664L636.926 471.023H627.645L619.523 476.824L618.363 479.145H616.043L613.723 483.785L602.121 496.547L594 505.828L589.359 508.148L588.199 511.629H584.719V513.949L574.277 522.07L560.355 532.512L546.434 539.473L533.672 540.633L523.23 537.152L512.789 530.191L498.867 517.43L484.945 503.508L477.984 494.227L475.664 493.066V490.746L471.023 488.426L460.582 480.305L454.781 475.664L452.461 474.504V472.184L446.66 469.863L435.059 459.422L418.816 446.66L413.016 442.02L411.855 437.379L416.496 436.219H437.379L443.18 430.418L447.82 416.496L451.301 414.176L453.621 422.297L459.422 433.898L466.383 443.18V445.5H468.703L474.504 451.301V453.621L479.145 455.941L490.746 467.543L500.027 475.664L505.828 480.305L515.109 482.625H540.633L555.715 480.305L567.316 477.984L577.758 473.344L588.199 467.543L598.641 459.422L603.281 457.102V454.781L609.082 448.98L632.285 428.098L635.766 418.816L638.086 403.734L639.246 379.371V316.723L642.727 314.402L646.207 322.523L652.008 341.086L660.129 357.328L664.77 361.969H671.73L678.691 353.848L684.492 339.926L689.133 324.844L697.254 286.559Z" fill="#865A5B"/>
<path d="M392.133 149.66H413.016L429.258 154.301L442.02 161.262L464.062 174.023L493.066 190.266L498.867 194.906V197.227H487.266L464.062 190.266L448.98 185.625L439.699 183.305H411.855L395.613 187.945L385.172 193.746L378.211 201.867L370.09 214.629L356.168 229.711L344.566 238.992L332.965 244.793L319.043 257.555L307.441 269.156L299.32 278.438L285.398 293.52L277.277 302.801L269.156 309.762L257.555 327.164L242.473 353.848L238.992 359.648L237.832 357.328L240.152 343.406V315.562L243.633 300.48L249.434 286.559L258.715 267.996L269.156 251.754L287.719 232.031L298.16 215.789L301.641 204.188L302.801 175.184L308.602 170.543L349.207 154.301L364.289 151.98L392.133 149.66Z" fill="#FEFEFE"/>
<path d="M549.914 225.07H577.758L575.438 238.992L576.598 250.594L583.559 263.355L591.68 274.957L590.52 278.438L583.559 276.117L560.355 263.355L549.914 259.875H538.312L525.551 262.195L517.43 264.516L516.27 269.156V284.238L519.75 297L522.07 306.281L517.43 308.602L504.668 303.961H493.066L469.863 306.281L465.223 307.441L450.141 308.602H414.176L409.535 309.762V320.203L414.176 331.805L419.977 343.406L418.816 350.367L414.176 355.008L402.574 359.648L374.73 372.41L368.93 377.051H366.609L361.969 386.332V403.734L368.93 421.137L375.891 435.059L384.012 447.82L399.094 469.863L411.855 483.785L418.816 491.906L417.656 495.387L401.414 494.227H378.211L361.969 498.867L337.605 508.148L324.844 511.629H319.043L317.883 513.949L321.363 488.426L324.844 482.625L344.566 475.664L352.688 473.344H377.051L394.453 475.664L386.332 466.383L385.172 462.902H382.852L370.09 446.66L349.207 415.336L338.766 393.293L335.285 381.691V367.77L338.766 360.809L348.047 352.688L366.609 343.406L381.691 337.605L393.293 330.645L394.453 326.004L384.012 303.961L382.852 300.48V292.359L386.332 288.879L389.812 287.719H426.938L464.062 283.078H480.305L496.547 288.879L489.586 264.516V250.594L490.746 247.113H493.066V244.793L500.027 241.312L510.469 238.992H524.391L540.633 244.793L562.676 257.555H566.156L558.035 244.793L552.234 234.352L549.914 228.551V225.07Z" fill="#865A5B"/>
<path d="M737.859 452.461L742.5 453.621L743.66 455.941L742.5 489.586L735.539 513.949V524.391L737.859 534.832L736.699 544.113L732.059 553.395L719.297 566.156L710.016 574.277L698.414 584.719L687.973 594L675.211 598.641L632.285 602.121L610.242 605.602L583.559 610.242L561.516 611.402V609.082L576.598 599.801L581.238 595.16L602.121 581.238L616.043 570.797L629.965 558.035L632.285 554.555L631.125 548.754L625.324 542.953L640.406 540.633L658.969 539.473L667.09 532.512L671.73 524.391L672.891 512.789L678.691 508.148L705.375 494.227L721.617 484.945L730.898 476.824L732.059 468.703L730.898 461.742L737.859 452.461Z" fill="#FCFCFB"/>
<path d="M558.035 551.074L562.676 552.234L564.996 553.395V555.715L570.797 558.035L577.758 559.195H588.199L627.645 555.715L631.125 558.035L621.844 567.316L610.242 576.598L590.52 590.52L580.078 597.48H577.758L576.598 600.961L563.836 609.082H561.516V611.402L589.359 607.922L610.242 604.441L627.645 603.281L626.484 611.402L619.523 616.043L603.281 620.684L573.117 624.164L527.871 626.484L538.312 632.285L537.152 635.766L524.391 641.566L505.828 646.207L479.145 649.688H464.062L457.102 643.887L452.461 635.766V633.445L464.062 628.805L468.703 626.484L469.863 623.004H472.184L474.504 617.203L481.465 605.602L486.105 596.32L487.266 584.719L483.785 567.316L482.625 558.035L487.266 559.195L500.027 573.117L502.348 577.758H504.668L510.469 583.559L516.27 588.199L527.871 591.68L540.633 592.84L547.594 591.68L552.234 588.199L554.555 583.559L556.875 553.395L558.035 551.074Z" fill="#865A5B"/>
<path d="M758.742 457.102H763.383L764.543 459.422V493.066L762.223 506.988L756.422 524.391V540.633L758.742 549.914V559.195L752.941 570.797L740.18 584.719L723.938 598.641L708.855 613.723L699.574 620.684L689.133 624.164L646.207 627.645L610.242 633.445L575.438 639.246H548.754L538.312 633.445L526.711 626.484V625.324L573.117 623.004L603.281 619.523L619.523 614.883L625.324 611.402L627.645 603.281L618.363 604.441L621.844 602.121L642.727 599.801L675.211 597.48L687.973 592.84L699.574 582.398L716.977 566.156L726.258 558.035L733.219 549.914L736.699 540.633L735.539 530.191L734.379 524.391V513.949L739.02 497.707L740.18 490.746L745.98 489.586L752.941 480.305L751.781 472.184L750.621 467.543L757.582 458.262L758.742 457.102Z" fill="#CCC1B7"/>
<path d="M147.34 431.578H148.5V504.668L146.18 517.43L145.02 539.473L147.34 555.715L150.82 564.996L151.98 568.477H154.301V570.797H156.621L158.941 575.438L163.582 599.801L169.383 619.523L177.504 638.086L186.785 654.328L196.066 665.93L208.828 679.852L221.59 690.293L229.711 696.094L226.23 697.254L209.988 689.133L197.227 682.172L180.984 669.41L169.383 654.328L163.582 646.207L154.301 627.645L140.379 603.281L129.938 591.68L116.016 578.918L111.375 570.797L107.895 559.195V530.191L109.055 518.59L112.535 503.508L116.016 487.266L121.816 474.504L131.098 455.941L141.539 438.539L147.34 431.578Z" fill="#A05B5C"/>
<path d="M701.895 141.539L712.336 145.02L744.82 151.98L769.184 158.941L781.945 164.742L787.746 169.383L786.586 174.023L777.305 177.504L773.824 178.664H733.219L697.254 174.023L672.891 171.703H661.289L642.727 174.023L626.484 178.664L604.441 187.945L600.961 191.426L596.32 192.586L591.68 180.984L583.559 168.223L584.719 164.742L607.922 155.461L627.645 147.34L634.605 142.699L642.727 143.859L657.809 148.5L685.652 154.301H704.215L706.535 153.141V147.34L701.895 141.539Z" fill="#855A5B"/>
<path d="M973.371 162.422H990.773L996.574 165.902L1002.38 172.863L1007.02 186.785L1010.5 222.75V270.316L1009.34 297L1004.7 361.969L1008.18 368.93L1003.54 366.609L988.453 352.688L981.492 341.086V319.043L989.613 273.797L993.094 247.113V223.91L989.613 207.668L982.652 197.227L969.891 187.945L955.969 179.824L942.047 174.023L946.688 171.703L961.77 165.902L973.371 162.422Z" fill="#6B2324"/>
<path d="M618.363 122.977H665.93L676.371 125.297L694.934 134.578L701.895 140.379L707.695 147.34V153.141L704.215 155.461H685.652L653.168 148.5L639.246 143.859L632.285 145.02L624.164 149.66L607.922 156.621L584.719 165.902L580.078 164.742L575.438 158.941L562.676 149.66L548.754 146.18L549.914 142.699L563.836 135.738L584.719 128.777L598.641 125.297L618.363 122.977Z" fill="#C25355"/>
<path d="M632.285 98.6133H648.527L657.809 99.7734V100.934H632.285L633.445 110.215L628.805 121.816L627.645 122.977L598.641 126.457L573.117 133.418L559.195 139.219L541.793 148.5H526.711L491.906 145.02L486.105 141.539L487.266 139.219L518.59 127.617L546.434 119.496L609.082 103.254L632.285 98.6133Z" fill="#A06C5C"/>
<path d="M878.238 226.23L885.199 228.551L889.84 233.191L893.32 243.633L894.48 258.715L891 257.555L882.879 245.953V243.633L880.559 244.793L882.879 271.477V298.16L881.719 348.047L880.559 351.527L868.957 348.047L861.996 345.727V331.805L864.316 307.441V264.516L859.676 249.434V247.113L856.195 245.953H848.074L834.152 250.594H827.191V249.434L835.312 248.273L836.473 242.473L842.273 235.512L852.715 232.031L872.438 228.551L878.238 226.23Z" fill="#A06B5B"/>
<path d="M633.445 805.148H645.047V806.309L635.766 807.469L569.637 808.629L547.594 817.91L540.633 821.391L529.031 824.871L509.309 831.832L484.945 838.793L475.664 839.953H451.301L428.098 835.312L407.215 829.512V828.352L426.938 824.871L462.902 816.75L493.066 810.949L529.031 807.469L568.477 806.309L633.445 805.148Z" fill="#853F2B"/>
<path d="M716.977 407.215L723.938 409.535L736.699 415.336L749.461 419.977L756.422 421.137H778.465L792.387 419.977L790.066 425.777L780.785 442.02L772.664 454.781L766.863 462.902H764.543L763.383 457.102L757.582 459.422L751.781 467.543L752.941 472.184L754.102 480.305L747.141 489.586L744.82 491.906H741.34L742.5 455.941L741.34 453.621L736.699 454.781L732.059 459.422L727.418 440.859L719.297 419.977L715.816 413.016L716.977 407.215Z" fill="#865B5C"/>
<path d="M842.273 569.637H844.594L843.434 575.438L831.832 595.16L824.871 611.402L815.59 620.684L797.027 633.445L771.504 647.367L733.219 664.77H729.738V662.449L742.5 653.168L758.742 641.566L777.305 626.484L798.188 610.242L808.629 600.961H810.949L813.27 596.32L820.23 590.52H822.551V588.199L835.312 577.758L842.273 569.637Z" fill="#9F8B8B"/>
<path d="M632.285 98.6133H648.527L657.809 99.7734V100.934H632.285L633.445 110.215L628.805 121.816L627.645 122.977L598.641 126.457L580.078 131.098L574.277 129.938L568.477 125.297L564.996 124.137V121.816L558.035 120.656L555.715 119.496V117.176L596.32 106.734L616.043 102.094L632.285 98.6133Z" fill="#AB5A38"/>
<path d="M560.355 596.32H569.637L577.758 598.641L573.117 603.281L563.836 609.082H561.516V611.402L589.359 607.922L610.242 604.441L627.645 603.281L626.484 611.402L619.523 616.043L603.281 620.684L573.117 624.164L525.551 626.484L524.391 624.164H545.273L546.434 612.562L549.914 604.441L558.035 597.48L560.355 596.32Z" fill="#8E90A2"/>
<path d="M280.758 298.16V301.641L271.477 309.762L278.438 319.043L288.879 328.324L297 334.125L295.84 336.445L271.477 338.766L249.434 344.566L247.113 345.727L249.434 338.766L264.516 314.402L272.637 305.121L280.758 298.16Z" fill="#BC9C8F"/>
<path d="M781.945 665.93L785.426 667.09L766.863 676.371L756.422 681.012L741.34 687.973L721.617 696.094L715.816 699.574L705.375 703.055L669.41 718.137L652.008 726.258L636.926 732.059L629.965 735.539L627.645 734.379L648.527 722.777L675.211 710.016L708.855 694.934L748.301 678.691L781.945 665.93Z" fill="#A06C5C"/>
<path d="M649.688 505.828L661.289 506.988L674.051 511.629L672.891 524.391L665.93 534.832L661.289 539.473L658.969 538.312L656.648 531.352L648.527 511.629L649.688 505.828Z" fill="#5A6A86"/>
<path d="M148.5 501.188H149.66L156.621 560.355V570.797H154.301V568.477H151.98L147.34 560.355L145.02 551.074L143.859 534.832L146.18 510.469L148.5 501.188Z" fill="#898CA1"/>
<path d="M808.629 302.801H809.789L813.27 320.203L821.391 341.086V346.887L819.07 344.566L812.109 326.004L807.469 310.922L808.629 302.801Z" fill="#8E4D39"/>
<path d="M180.984 766.863L187.945 768.023L189.105 769.184V774.984L186.785 777.305H180.984L178.664 774.984V769.184L180.984 766.863Z" fill="#E6DDD9"/>
<path d="M372.41 631.125L375.891 633.445L390.973 636.926L396.773 634.605L392.133 639.246L387.492 641.566H379.371L372.41 633.445V631.125Z" fill="#5A6A86"/>
<path d="M290.039 538.312L293.52 539.473L286.559 542.953L285.398 552.234L288.879 559.195L284.238 556.875L279.598 549.914V544.113L290.039 538.312Z" fill="#5A6A86"/>
<path d="M972.211 534.832L973.371 537.152L962.93 554.555L957.129 560.355L952.488 563.836L954.809 559.195L966.41 542.953L972.211 534.832Z" fill="#773727"/>
<path d="M554.555 388.652L559.195 389.812L560.355 395.613L558.035 397.934L553.395 396.773L551.074 395.613L552.234 389.812L554.555 388.652Z" fill="#F8F7F6"/>
<path d="M552.234 386.332L560.355 388.652L563.836 395.613L558.035 399.094L552.234 397.934L548.754 395.613L549.914 389.812L552.234 386.332ZM554.555 388.652L551.074 390.973V395.613L554.555 397.934L559.195 396.773L560.355 390.973L558.035 388.652H554.555Z" fill="#90939F"/>
<path d="M878.238 407.215H879.398V421.137L873.598 417.656V414.176L878.238 407.215Z" fill="#A06C5C"/>
<path d="M959.449 433.898L964.09 435.059V440.859L959.449 442.02L957.129 439.699V435.059L959.449 433.898Z" fill="#CC8E66"/>
<path d="M112.535 498.867L113.695 503.508L110.215 518.59L107.895 520.91L109.055 510.469L112.535 498.867Z" fill="#AC5A38"/>
<path d="M936.246 240.152L940.887 241.312L939.727 247.113L933.926 245.953L935.086 241.312L936.246 240.152Z" fill="#CC8F67"/>
</svg>
