<svg width="1666" height="1932" viewBox="0 0 1666 1932" fill="none" xmlns="http://www.w3.org/2000/svg">
<path d="M1665.56 1466.49L1662.62 549.799L1535.95 623.981L1532.73 931.954C1531.93 988.728 1550.67 1031.58 1585.76 1052.47C1610.93 1067.46 1624.86 1102.01 1624.05 1146.73L1619.77 1458.45L1539.69 1505.32L1543.71 1212.08C1544.52 1155.57 1525.77 1112.72 1490.69 1091.56C1465.51 1076.57 1451.59 1042.29 1452.39 997.298L1455.87 670.846L1315.28 752.794L1311.79 1061.57C1310.99 1118.34 1330.01 1161.19 1364.82 1182.08C1389.73 1197.08 1403.92 1231.36 1403.12 1276.35L1398.83 1587.53L1318.76 1634.13L1322.77 1341.69C1323.58 1285.19 1304.56 1242.34 1269.75 1221.18C1244.58 1206.18 1230.65 1171.91 1231.19 1126.91L1234.94 799.391L1093.8 881.875L1090.59 1191.45C1089.79 1247.96 1108.8 1290.81 1143.61 1311.97C1168.79 1326.96 1182.71 1361.24 1181.91 1406.23L1177.63 1716.62L1097.55 1763.48L1101.57 1471.84C1102.37 1415.07 1083.63 1372.22 1048.54 1351.33C1023.37 1336.34 1009.45 1302.06 1010.25 1257.07L1013.73 929.008L870.724 1012.83V1931.39L987.753 1862.84L991.235 1536.65C992.038 1480.15 973.292 1437.3 938.21 1416.14C917.857 1403.82 904.735 1378.65 900.985 1345.71V1237.78L903.931 1028.36L984.004 981.497L980.255 1256.53C979.452 1313.3 998.198 1356.15 1033.28 1377.04C1058.45 1392.04 1072.38 1426.32 1071.58 1471.31L1067.83 1815.97L1208.69 1733.49L1212.17 1406.77C1212.98 1349.99 1194.23 1307.41 1159.15 1286.26C1134.24 1271.26 1120.05 1236.98 1120.85 1191.99L1124.87 899.014L1204.94 852.149L1201.19 1126.38C1200.39 1183.15 1219.4 1225.73 1254.22 1246.89C1279.39 1261.89 1293.32 1296.17 1292.78 1341.16L1289.03 1686.35L1430.16 1603.87L1433.38 1276.62C1434.18 1219.84 1415.17 1176.99 1380.35 1156.1C1355.18 1141.11 1341.25 1106.56 1341.79 1061.84L1345.81 769.665L1425.88 722.8L1422.13 996.494C1421.33 1053 1440.07 1095.85 1475.15 1117.01C1500.33 1132 1514.25 1166.28 1513.45 1211.27L1510.24 1557.54L1665.56 1466.49ZM1601.29 1026.49C1576.12 1011.49 1562.19 977.212 1562.99 932.222L1567.01 640.852L1632.89 602.289L1634.5 1059.96C1625.66 1045.77 1614.68 1034.52 1601.29 1026.49ZM922.945 1442.12C948.119 1457.12 962.044 1491.39 961.241 1536.38L956.956 1845.96L900.985 1878.64V1423.91C907.413 1431.14 914.643 1437.3 922.945 1442.12Z" fill="url(#paint0_linear_44_310)"/>
<path d="M156.226 1557.54L152.745 1211.54C152.209 1166.82 166.135 1132.27 191.041 1117.27C226.123 1096.12 244.869 1053.54 244.066 996.762L240.316 723.067L320.389 769.933L324.406 1062.11C324.942 1106.83 311.016 1141.11 285.843 1156.37C250.761 1177.26 232.014 1220.11 232.818 1276.88L236.031 1604.14L377.163 1686.62L373.414 1341.42C372.879 1296.7 386.804 1262.15 411.978 1247.16C447.06 1226 465.806 1183.42 465.003 1126.65L461.254 852.416L541.327 899.282L545.344 1192.26C545.879 1236.98 531.953 1271.53 507.048 1286.52C471.966 1307.68 453.219 1350.26 454.023 1407.04L457.504 1733.75L598.368 1816.24L594.619 1471.58C594.084 1426.85 608.009 1392.57 632.915 1377.31C667.997 1356.42 686.743 1313.57 685.94 1256.8L682.459 981.765L762.532 1028.63L765.477 1238.05V1345.98C761.728 1379.18 748.606 1404.09 728.253 1416.41C693.171 1437.57 674.424 1480.15 675.228 1536.92L678.709 1863.1L795.739 1931.66V1013.1L652.732 929.276L656.214 1257.33C656.749 1302.06 642.824 1336.34 617.918 1351.6C582.836 1372.76 564.09 1415.34 564.893 1472.11L568.91 1763.75L488.837 1716.88L484.552 1406.5C483.749 1361.78 497.942 1327.23 522.848 1312.23C557.93 1291.08 576.676 1248.5 575.873 1191.72L572.659 882.142L431.26 799.659L435.009 1127.18C435.544 1171.9 421.619 1206.45 396.445 1221.45C361.363 1242.6 342.617 1285.19 343.42 1341.96L347.437 1634.4L267.364 1587.8L263.347 1276.35C262.812 1231.62 276.737 1197.35 301.643 1182.08C336.725 1160.92 355.471 1118.34 354.668 1061.57L351.187 752.794L210.59 670.578L214.072 997.03C214.607 1041.75 200.681 1076.3 175.776 1091.3C140.694 1112.45 121.947 1155.03 122.751 1211.81L126.768 1505.05L46.6949 1458.19L42.4101 1146.46C41.8745 1101.74 55.8002 1067.46 80.7059 1052.2C115.788 1031.31 134.534 988.46 133.731 931.686L130.517 623.713L3.84648 549.531L0.900635 1466.49L156.226 1557.54ZM32.2335 1059.96L33.8404 602.288L99.7199 640.852L103.737 932.221C104.273 976.944 90.3468 1011.22 65.4411 1026.49C51.7832 1034.52 40.8032 1045.77 32.2335 1059.96ZM765.21 1423.91V1878.64L709.239 1845.96L704.954 1536.38C704.418 1491.66 718.344 1457.11 743.25 1442.12C751.819 1437.3 759.05 1431.14 765.21 1423.91Z" fill="url(#paint1_linear_44_310)"/>
<path d="M833.231 935.167L1643.87 465.173L837.784 0H828.679L22.5925 465.173L833.231 935.167ZM833.231 900.621L415.191 658.259C430.188 657.456 444.382 653.707 456.969 647.011C483.481 632.55 521.241 637.906 560.608 661.741L823.323 820.012H843.14L1105.85 661.741C1145.22 637.906 1182.98 632.55 1209.49 647.011C1222.08 653.974 1236.01 657.456 1251.27 658.259L833.231 900.621ZM833.231 31.8686L903.128 72.3067L835.374 113.281H831.357L763.603 72.3067L833.231 31.8686ZM733.876 89.1783L822.787 142.739H843.408L932.318 89.1783L998.466 127.474L834.838 226.026H830.821L667.194 127.474L733.876 89.1783ZM638.271 144.346L823.055 255.752H843.676L1028.46 144.346L1094.87 182.642C1093.54 183.445 1092.2 183.98 1091.13 184.784L835.374 338.77H831.624L575.873 184.784C574.534 183.98 573.463 183.445 572.124 182.642L638.271 144.346ZM541.326 200.316C547.486 203.262 553.913 206.476 560.34 210.225L823.055 368.497H843.408L1106.12 210.225C1112.55 206.476 1118.71 203.262 1125.14 200.316L1277.52 288.156C1257.16 292.441 1238.95 290.566 1224.22 282.264C1187.8 262.447 1140.4 267.803 1090.86 297.529L835.106 451.515H831.357L575.873 297.529C527.133 268.071 478.393 262.447 442.507 282.264C427.778 290.298 409.3 292.173 389.214 288.156L541.326 200.316ZM354.132 308.241C392.16 323.774 428.581 323.774 456.969 308.241C483.481 293.78 521.241 299.136 560.608 322.97L823.323 481.242H843.676L1106.39 322.97C1145.76 299.136 1183.52 293.78 1210.03 308.241C1238.42 323.774 1274.57 323.774 1312.87 308.241L1381.69 348.144L1327.86 380.548C1288.5 404.382 1250.47 409.738 1224.22 395.277C1188.34 375.727 1139.6 381.351 1090.86 410.542L835.106 564.528H831.624L575.873 410.542C527.133 381.351 478.661 375.727 442.507 395.277C416.263 409.738 378.235 404.382 338.868 380.548L285.039 348.144L354.132 308.241ZM255.581 365.015L323.603 405.989C372.343 435.447 421.351 440.803 456.969 421.254C483.481 406.792 521.241 412.148 560.608 435.983L823.323 594.254H843.408L1106.12 435.983C1145.49 412.148 1183.52 406.792 1209.76 421.254C1245.38 440.803 1294.39 435.447 1343.13 405.989L1410.88 365.015L1477.3 403.311L1327.86 493.293C1288.5 517.127 1250.47 522.483 1224.22 508.022C1188.34 488.204 1139.6 493.828 1090.86 523.287L835.106 677.273H831.892L576.141 523.287C526.597 493.56 479.196 487.937 442.775 508.022C416.53 522.483 378.502 517.127 339.135 493.293L189.434 403.311L255.581 365.015ZM323.603 519.002C372.343 548.46 421.351 553.816 456.969 534.266C483.481 519.805 521.241 525.161 560.608 548.996L823.323 707.267H843.14L1105.85 548.996C1145.22 525.161 1183.25 519.805 1209.49 534.266C1245.11 553.816 1294.12 548.46 1342.86 519.002L1506.49 420.45L1572.63 458.746L1327.33 606.573C1287.96 630.14 1249.93 635.764 1223.69 621.302C1187.8 601.485 1139.06 607.109 1090.32 636.567L834.57 790.554H831.357L575.873 636.299C526.329 606.573 478.928 600.949 442.507 621.035C416.263 635.496 378.235 629.872 338.868 606.305L93.5602 458.478L159.708 420.182L323.603 519.002Z" fill="url(#paint2_linear_44_310)"/>
<defs>
<linearGradient id="paint0_linear_44_310" x1="1043.21" y1="948.845" x2="1110.92" y2="1037.16" gradientUnits="userSpaceOnUse">
<stop stop-color="white"/>
</linearGradient>
<linearGradient id="paint1_linear_44_310" x1="636.068" y1="1004.09" x2="103.834" y2="1536.32" gradientUnits="userSpaceOnUse">
<stop stop-color="white"/>
</linearGradient>
<linearGradient id="paint2_linear_44_310" x1="833.231" y1="0" x2="833.231" y2="935.167" gradientUnits="userSpaceOnUse">
<stop stop-color="white"/>
</linearGradient>
</defs>
</svg>
