<svg width="4096" height="1164" viewBox="0 0 4096 1164" fill="none" xmlns="http://www.w3.org/2000/svg">
<path d="M1003 883.592L1001.22 331.267L924.903 375.963L922.966 561.523C922.482 595.731 933.777 621.548 954.915 634.134C970.083 643.17 978.473 663.985 977.989 690.932L975.408 878.751L927.162 906.989L929.582 730.303C930.066 696.257 918.771 670.439 897.633 657.692C882.465 648.656 874.075 628.002 874.559 600.894L876.657 404.2L791.944 453.575L789.846 639.62C789.362 673.828 800.818 699.645 821.795 712.231C836.801 721.267 845.353 741.921 844.869 769.029L842.287 956.526L794.041 984.602L796.462 808.4C796.946 774.353 785.489 748.536 764.513 735.789C749.345 726.753 740.955 706.099 741.277 678.991L743.536 481.651L658.501 531.35L656.565 717.878C656.08 751.925 667.537 777.742 688.513 790.489C703.681 799.525 712.072 820.179 711.588 847.287L709.006 1034.3L660.76 1062.54L663.18 886.819C663.664 852.612 652.369 826.794 631.231 814.209C616.064 805.173 607.673 784.519 608.157 757.411L610.255 559.748L524.09 610.253V1163.71L594.603 1122.4L596.701 925.868C597.185 891.821 585.89 866.004 564.752 853.257C552.489 845.835 544.582 830.667 542.323 810.82V745.793L544.098 619.612L592.344 591.374L590.085 757.088C589.601 791.296 600.896 817.113 622.034 829.699C637.202 838.735 645.592 859.389 645.108 886.497L642.849 1094.16L727.723 1044.47L729.821 847.61C730.305 813.402 719.01 787.746 697.872 774.999C682.866 765.963 674.314 745.309 674.798 718.201L677.218 541.676L725.464 513.439L723.205 678.669C722.721 712.876 734.178 738.532 755.154 751.279C770.322 760.315 778.712 780.969 778.39 808.077L776.131 1016.07L861.166 966.368L863.103 769.19C863.587 734.982 852.13 709.165 831.154 696.579C815.986 687.543 807.596 666.728 807.918 639.782L810.339 463.741L858.585 435.503L856.326 600.41C855.841 634.457 867.137 660.274 888.274 673.021C903.442 682.057 911.833 702.711 911.349 729.819L909.412 938.454L1003 883.592ZM964.274 618.482C949.106 609.446 940.716 588.793 941.2 561.685L943.62 386.128L983.314 362.893L984.282 638.652C978.957 630.1 972.342 623.323 964.274 618.482ZM555.555 868.909C570.722 877.945 579.113 898.598 578.629 925.706L576.047 1112.24L542.323 1131.92V857.936C546.196 862.293 550.553 866.004 555.555 868.909Z" fill="url(#paint0_linear_44_365)"/>
<path d="M93.5875 938.458L91.4899 729.985C91.1671 703.038 99.5578 682.223 114.564 673.187C135.702 660.44 146.997 634.784 146.513 600.576L144.254 435.669L192.5 463.906L194.92 639.947C195.243 666.894 186.852 687.548 171.685 696.745C150.547 709.331 139.252 735.148 139.736 769.356L141.672 966.534L226.708 1016.23L224.449 808.243C224.126 781.296 232.517 760.481 247.684 751.445C268.822 738.698 280.117 713.042 279.633 678.834L277.374 513.604L325.62 541.842L328.04 718.367C328.363 745.313 319.973 766.129 304.966 775.165C283.828 787.912 272.533 813.568 273.017 847.775L275.115 1044.63L359.989 1094.33L357.73 886.663C357.407 859.716 365.798 839.062 380.804 829.865C401.942 817.279 413.237 791.462 412.753 757.254L410.656 591.54L458.902 619.778L460.676 745.959V810.986C458.417 830.994 450.511 846 438.248 853.423C417.11 866.17 405.815 891.826 406.299 926.034L408.397 1122.57L478.91 1163.87V610.419L392.745 559.914L394.842 757.577C395.165 784.523 386.775 805.177 371.768 814.374C350.63 827.122 339.335 852.777 339.819 886.985L342.24 1062.7L293.994 1034.47L291.412 847.453C290.928 820.506 299.48 799.691 314.486 790.655C335.624 777.908 346.919 752.252 346.435 718.044L344.499 531.515L259.302 481.817L261.561 679.157C261.884 706.104 253.493 726.919 238.325 735.955C217.188 748.702 205.893 774.358 206.377 808.566L208.797 984.768L160.551 956.692L158.131 769.033C157.808 742.086 166.199 721.433 181.205 712.235C202.343 699.488 213.638 673.832 213.154 639.624L211.056 453.58L126.343 404.043L128.441 600.737C128.763 627.684 120.373 648.499 105.367 657.535C84.2288 670.282 72.9337 695.938 73.4178 730.146L75.8382 906.832L27.5922 878.595L25.0105 690.775C24.6877 663.828 33.0784 643.174 48.0846 633.977C69.2225 621.391 80.5175 595.574 80.0335 561.366L78.0972 375.805L1.77495 331.109L0 883.597L93.5875 938.458ZM18.8789 638.656L19.847 362.897L59.541 386.132L61.9614 561.689C62.2841 588.636 53.8935 609.289 38.8872 618.487C30.658 623.327 24.0423 630.104 18.8789 638.656ZM460.515 857.941V1131.93L426.791 1112.24L424.21 925.711C423.887 898.764 432.278 877.949 447.284 868.913C452.447 866.009 456.804 862.298 460.515 857.941Z" fill="url(#paint1_linear_44_365)"/>
<path d="M501.5 563.46L989.93 280.278L504.243 0H498.757L13.0698 280.278L501.5 563.46ZM501.5 542.645L249.62 396.616C258.656 396.132 267.208 393.873 274.792 389.839C290.767 381.126 313.518 384.353 337.238 398.714L495.529 494.076H507.47L665.762 398.714C689.482 384.353 712.233 381.126 728.207 389.839C735.791 394.035 744.182 396.132 753.379 396.616L501.5 542.645ZM501.5 19.2015L543.614 43.5665L502.791 68.2542H500.37L459.547 43.5665L501.5 19.2015ZM441.636 53.732L495.207 86.0035H507.631L561.202 53.732L601.057 76.8061L502.468 136.186H500.047L401.458 76.8061L441.636 53.732ZM384.031 86.9716L495.368 154.096H507.793L619.13 86.9716L659.146 110.046C658.339 110.53 657.533 110.853 656.887 111.337L502.791 204.117H500.532L346.435 111.337C345.628 110.853 344.983 110.53 344.176 110.046L384.031 86.9716ZM325.62 120.695C329.331 122.47 333.204 124.407 337.076 126.666L495.368 222.028H507.631L665.923 126.666C669.796 124.407 673.507 122.47 677.38 120.695L769.192 173.621C756.929 176.202 745.957 175.073 737.082 170.071C715.137 158.13 686.577 161.357 656.726 179.268L502.629 272.049H500.37L346.435 179.268C317.068 161.519 287.701 158.13 266.079 170.071C257.204 174.911 246.07 176.041 233.969 173.621L325.62 120.695ZM212.831 185.722C235.744 195.081 257.688 195.081 274.792 185.722C290.767 177.009 313.518 180.236 337.238 194.597L495.529 289.959H507.793L666.085 194.597C689.804 180.236 712.556 177.009 728.53 185.722C745.634 195.081 767.417 195.081 790.491 185.722L831.96 209.765L799.528 229.289C775.808 243.65 752.895 246.877 737.082 238.163C715.46 226.384 686.093 229.773 656.726 247.361L502.629 340.141H500.532L346.435 247.361C317.068 229.773 287.862 226.384 266.079 238.163C250.266 246.877 227.353 243.65 203.633 229.289L171.2 209.765L212.831 185.722ZM153.451 219.93L194.436 244.618C223.803 262.367 253.332 265.594 274.792 253.815C290.767 245.102 313.518 248.329 337.238 262.69L495.529 358.052H507.631L665.923 262.69C689.643 248.329 712.556 245.102 728.369 253.815C749.829 265.594 779.358 262.367 808.725 244.618L849.548 219.93L889.565 243.004L799.528 297.22C775.808 311.581 752.895 314.808 737.082 306.095C715.46 294.154 686.093 297.543 656.726 315.292L502.629 408.073H500.693L346.596 315.292C316.745 297.382 288.185 293.993 266.24 306.095C250.427 314.808 227.514 311.581 203.795 297.22L113.596 243.004L153.451 219.93ZM194.436 312.711C223.803 330.46 253.332 333.687 274.792 321.908C290.767 313.195 313.518 316.422 337.238 330.783L495.529 426.145H507.47L665.762 330.783C689.482 316.422 712.394 313.195 728.207 321.908C749.668 333.687 779.196 330.46 808.564 312.711L907.153 253.331L947.008 276.405L799.205 365.474C775.485 379.674 752.572 383.062 736.759 374.349C715.137 362.409 685.77 365.797 656.403 383.546L502.307 476.327H500.37L346.435 383.385C316.584 365.474 288.023 362.086 266.079 374.188C250.266 382.901 227.353 379.513 203.633 365.313L55.8296 276.244L95.685 253.17L194.436 312.711Z" fill="url(#paint2_linear_44_365)"/>
<path d="M1453.68 744.275H1394V419H1453.68V551.379H1666.85V419H1726.52V744.275H1666.85V611.896H1453.68V744.275ZM2106.96 744.275H1907.23C1895.75 744.275 1885.28 741.404 1875.82 735.66C1866.36 729.987 1858.76 722.387 1853.02 712.861C1847.28 703.406 1844.41 692.935 1844.41 681.448V481.828C1844.41 470.341 1847.28 459.87 1853.02 450.414C1858.76 440.888 1866.36 433.289 1875.82 427.615C1885.28 421.872 1895.75 419 1907.23 419H2106.96C2118.38 419 2128.81 421.872 2138.27 427.615C2147.79 433.289 2155.43 440.888 2161.17 450.414C2166.84 459.87 2169.68 470.341 2169.68 481.828V681.448C2169.68 692.935 2166.84 703.406 2161.17 712.861C2155.43 722.387 2147.79 729.987 2138.27 735.66C2128.81 741.404 2118.38 744.275 2106.96 744.275ZM1909.44 684.179H2103.7C2105.24 684.179 2106.61 683.654 2107.8 682.603C2108.99 681.553 2109.58 680.257 2109.58 678.716V484.454C2109.58 482.983 2108.99 481.723 2107.8 480.672C2106.61 479.621 2105.24 479.096 2103.7 479.096H1909.44C1907.97 479.096 1906.71 479.621 1905.66 480.672C1904.61 481.723 1904.08 482.983 1904.08 484.454V678.716C1904.08 680.257 1904.61 681.553 1905.66 682.603C1906.71 683.654 1907.97 684.179 1909.44 684.179ZM2611.05 744.275H2546.02L2447.99 627.235H2526.16L2611.05 727.57V744.275ZM2346.4 744.275H2286.72V419.42H2548.75C2560.17 419.42 2570.71 422.292 2580.37 428.035C2590.04 433.779 2597.71 441.378 2603.38 450.834C2609.12 460.36 2612 470.831 2612 482.248V569.871C2612 581.357 2609.12 591.899 2603.38 601.495C2597.71 611.16 2590.04 618.76 2580.37 624.293C2570.71 629.897 2560.17 632.698 2548.75 632.698L2346.4 633.119V744.275ZM2351.76 572.602H2546.02C2547.56 572.602 2548.92 572.147 2550.11 571.236C2551.31 570.326 2551.9 569.135 2551.9 567.664V484.454C2551.9 482.983 2551.31 481.723 2550.11 480.672C2548.92 479.621 2547.56 479.096 2546.02 479.096H2351.76C2350.28 479.096 2349.02 479.621 2347.97 480.672C2346.92 481.723 2346.4 482.983 2346.4 484.454V567.664C2346.4 569.135 2346.92 570.326 2347.97 571.236C2349.02 572.147 2350.28 572.602 2351.76 572.602ZM2779.57 744.275H2720.42V419H2779.57V744.275ZM3213.8 744.275H2888.52V679.241L3126.6 479.096H2888.52V419H3213.8V484.034L2975.62 684.179H3213.8V744.275ZM3590.55 744.275H3390.83C3379.41 744.275 3368.94 741.404 3359.42 735.66C3349.96 729.987 3342.36 722.387 3336.62 712.861C3330.87 703.406 3328 692.935 3328 681.448V481.828C3328 470.341 3330.87 459.87 3336.62 450.414C3342.36 440.888 3349.96 433.289 3359.42 427.615C3368.94 421.872 3379.41 419 3390.83 419H3590.55C3601.97 419 3612.44 421.872 3621.97 427.615C3631.42 433.289 3639.02 440.888 3644.77 450.414C3650.44 459.87 3653.28 470.341 3653.28 481.828V681.448C3653.28 692.935 3650.44 703.406 3644.77 712.861C3639.02 722.387 3631.42 729.987 3621.97 735.66C3612.44 741.404 3601.97 744.275 3590.55 744.275ZM3393.14 684.179H3587.4C3588.87 684.179 3590.2 683.654 3591.39 682.603C3592.66 681.553 3593.29 680.257 3593.29 678.716V484.454C3593.29 482.983 3592.66 481.723 3591.39 480.672C3590.2 479.621 3588.87 479.096 3587.4 479.096H3393.14C3391.6 479.096 3390.3 479.621 3389.25 480.672C3388.2 481.723 3387.68 482.983 3387.68 484.454V678.716C3387.68 680.257 3388.2 681.553 3389.25 682.603C3390.3 683.654 3391.6 684.179 3393.14 684.179ZM3829.99 744.275H3770.32V419H3835.88L4035.5 656.653V419H4095.59V744.275H4030.14L3829.99 506.202V744.275Z" fill="black"/>
<defs>
<linearGradient id="paint0_linear_44_365" x1="628.018" y1="571.701" x2="668.815" y2="624.914" gradientUnits="userSpaceOnUse">
<stop/>
</linearGradient>
<linearGradient id="paint1_linear_44_365" x1="382.704" y1="604.989" x2="62.0208" y2="925.674" gradientUnits="userSpaceOnUse">
<stop/>
</linearGradient>
<linearGradient id="paint2_linear_44_365" x1="314.363" y1="467.45" x2="651.038" y2="130.775" gradientUnits="userSpaceOnUse">
<stop/>
</linearGradient>
</defs>
</svg>
