<svg width="2702" height="2526" viewBox="0 0 2702 2526" fill="none" xmlns="http://www.w3.org/2000/svg">
<path d="M2182.56 1466.49L2179.62 549.799L2052.95 623.981L2049.73 931.954C2048.93 988.728 2067.67 1031.58 2102.76 1052.47C2127.93 1067.46 2141.86 1102.01 2141.05 1146.73L2136.77 1458.45L2056.69 1505.32L2060.71 1212.08C2061.52 1155.57 2042.77 1112.72 2007.69 1091.56C1982.51 1076.57 1968.59 1042.29 1969.39 997.298L1972.87 670.846L1832.28 752.794L1828.79 1061.57C1827.99 1118.34 1847.01 1161.19 1881.82 1182.08C1906.73 1197.08 1920.92 1231.36 1920.12 1276.35L1915.83 1587.53L1835.76 1634.13L1839.77 1341.69C1840.58 1285.19 1821.56 1242.34 1786.75 1221.18C1761.58 1206.18 1747.65 1171.91 1748.19 1126.91L1751.94 799.391L1610.8 881.875L1607.59 1191.45C1606.79 1247.96 1625.8 1290.81 1660.61 1311.97C1685.79 1326.96 1699.71 1361.24 1698.91 1406.23L1694.63 1716.62L1614.55 1763.48L1618.57 1471.84C1619.37 1415.07 1600.63 1372.22 1565.54 1351.33C1540.37 1336.34 1526.45 1302.06 1527.25 1257.07L1530.73 929.008L1387.72 1012.83V1931.39L1504.75 1862.84L1508.23 1536.65C1509.04 1480.15 1490.29 1437.3 1455.21 1416.14C1434.86 1403.82 1421.73 1378.65 1417.99 1345.71V1237.78L1420.93 1028.36L1501 981.497L1497.26 1256.53C1496.45 1313.3 1515.2 1356.15 1550.28 1377.04C1575.45 1392.04 1589.38 1426.32 1588.58 1471.31L1584.83 1815.97L1725.69 1733.49L1729.17 1406.77C1729.98 1349.99 1711.23 1307.41 1676.15 1286.26C1651.24 1271.26 1637.05 1236.98 1637.85 1191.99L1641.87 899.014L1721.94 852.149L1718.19 1126.38C1717.39 1183.15 1736.4 1225.73 1771.22 1246.89C1796.39 1261.89 1810.32 1296.17 1809.78 1341.16L1806.03 1686.35L1947.16 1603.87L1950.38 1276.62C1951.18 1219.84 1932.17 1176.99 1897.35 1156.1C1872.18 1141.11 1858.25 1106.56 1858.79 1061.84L1862.81 769.665L1942.88 722.8L1939.13 996.494C1938.33 1053 1957.07 1095.85 1992.15 1117.01C2017.33 1132 2031.25 1166.28 2030.45 1211.27L2027.24 1557.54L2182.56 1466.49ZM2118.29 1026.49C2093.12 1011.49 2079.19 977.212 2079.99 932.222L2084.01 640.852L2149.89 602.289L2151.5 1059.96C2142.66 1045.77 2131.68 1034.52 2118.29 1026.49ZM1439.95 1442.12C1465.12 1457.12 1479.04 1491.39 1478.24 1536.38L1473.96 1845.96L1417.99 1878.64V1423.91C1424.41 1431.14 1431.64 1437.3 1439.95 1442.12Z" fill="url(#paint0_linear_44_337)"/>
<path d="M673.226 1557.54L669.745 1211.54C669.209 1166.82 683.135 1132.27 708.04 1117.27C743.123 1096.12 761.869 1053.54 761.065 996.762L757.316 723.067L837.389 769.933L841.406 1062.11C841.942 1106.83 828.016 1141.11 802.843 1156.37C767.76 1177.26 749.014 1220.11 749.818 1276.88L753.031 1604.14L894.163 1686.62L890.414 1341.42C889.878 1296.7 903.804 1262.15 928.978 1247.16C964.06 1226 982.806 1183.42 982.003 1126.65L978.253 852.416L1058.33 899.282L1062.34 1192.26C1062.88 1236.98 1048.95 1271.53 1024.05 1286.52C988.965 1307.68 970.219 1350.26 971.023 1407.04L974.504 1733.75L1115.37 1816.24L1111.62 1471.58C1111.08 1426.85 1125.01 1392.57 1149.91 1377.31C1185 1356.42 1203.74 1313.57 1202.94 1256.8L1199.46 981.765L1279.53 1028.63L1282.48 1238.05V1345.98C1278.73 1379.18 1265.61 1404.09 1245.25 1416.41C1210.17 1437.57 1191.42 1480.15 1192.23 1536.92L1195.71 1863.1L1312.74 1931.66V1013.1L1169.73 929.276L1173.21 1257.33C1173.75 1302.06 1159.82 1336.34 1134.92 1351.6C1099.84 1372.76 1081.09 1415.34 1081.89 1472.11L1085.91 1763.75L1005.84 1716.88L1001.55 1406.5C1000.75 1361.78 1014.94 1327.23 1039.85 1312.23C1074.93 1291.08 1093.68 1248.5 1092.87 1191.72L1089.66 882.142L948.259 799.659L952.009 1127.18C952.544 1171.9 938.618 1206.45 913.445 1221.45C878.363 1242.6 859.617 1285.19 860.42 1341.96L864.437 1634.4L784.364 1587.8L780.347 1276.35C779.811 1231.62 793.737 1197.35 818.643 1182.08C853.725 1160.92 872.471 1118.34 871.668 1061.57L868.186 752.794L727.59 670.578L731.071 997.03C731.607 1041.75 717.681 1076.3 692.776 1091.3C657.693 1112.45 638.947 1155.03 639.751 1211.81L643.768 1505.05L563.695 1458.19L559.41 1146.46C558.874 1101.74 572.8 1067.46 597.706 1052.2C632.788 1031.31 651.534 988.46 650.731 931.686L647.517 623.713L520.846 549.531L517.9 1466.49L673.226 1557.54ZM549.233 1059.96L550.84 602.288L616.72 640.852L620.737 932.221C621.272 976.944 607.347 1011.22 582.441 1026.49C568.783 1034.52 557.803 1045.77 549.233 1059.96ZM1282.21 1423.91V1878.64L1226.24 1845.96L1221.95 1536.38C1221.42 1491.66 1235.34 1457.11 1260.25 1442.12C1268.82 1437.3 1276.05 1431.14 1282.21 1423.91Z" fill="url(#paint1_linear_44_337)"/>
<path d="M1350.23 935.167L2160.87 465.173L1354.78 0H1345.68L539.592 465.173L1350.23 935.167ZM1350.23 900.621L932.191 658.259C947.188 657.456 961.382 653.707 973.968 647.011C1000.48 632.55 1038.24 637.906 1077.61 661.741L1340.32 820.012H1360.14L1622.85 661.741C1662.22 637.906 1699.98 632.55 1726.49 647.011C1739.08 653.974 1753.01 657.456 1768.27 658.259L1350.23 900.621ZM1350.23 31.8686L1420.13 72.3067L1352.37 113.281H1348.36L1280.6 72.3067L1350.23 31.8686ZM1250.88 89.1783L1339.79 142.739H1360.41L1449.32 89.1783L1515.47 127.474L1351.84 226.026H1347.82L1184.19 127.474L1250.88 89.1783ZM1155.27 144.346L1340.05 255.752H1360.68L1545.46 144.346L1611.87 182.642C1610.54 183.445 1609.2 183.98 1608.13 184.784L1352.37 338.77H1348.62L1092.87 184.784C1091.53 183.98 1090.46 183.445 1089.12 182.642L1155.27 144.346ZM1058.33 200.316C1064.49 203.262 1070.91 206.476 1077.34 210.225L1340.05 368.497H1360.41L1623.12 210.225C1629.55 206.476 1635.71 203.262 1642.14 200.316L1794.52 288.156C1774.16 292.441 1755.95 290.566 1741.22 282.264C1704.8 262.447 1657.4 267.803 1607.86 297.529L1352.11 451.515H1348.36L1092.87 297.529C1044.13 268.071 995.393 262.447 959.507 282.264C944.778 290.298 926.299 292.173 906.214 288.156L1058.33 200.316ZM871.132 308.241C909.16 323.774 945.581 323.774 973.968 308.241C1000.48 293.78 1038.24 299.136 1077.61 322.97L1340.32 481.242H1360.68L1623.39 322.97C1662.76 299.136 1700.52 293.78 1727.03 308.241C1755.42 323.774 1791.57 323.774 1829.87 308.241L1898.69 348.144L1844.86 380.548C1805.5 404.382 1767.47 409.738 1741.22 395.277C1705.34 375.727 1656.6 381.351 1607.86 410.542L1352.11 564.528H1348.62L1092.87 410.542C1044.13 381.351 995.66 375.727 959.507 395.277C933.262 409.738 895.234 404.382 855.867 380.548L802.039 348.144L871.132 308.241ZM772.581 365.015L840.603 405.989C889.343 435.447 938.351 440.803 973.968 421.254C1000.48 406.792 1038.24 412.148 1077.61 435.983L1340.32 594.254H1360.41L1623.12 435.983C1662.49 412.148 1700.52 406.792 1726.76 421.254C1762.38 440.803 1811.39 435.447 1860.13 405.989L1927.88 365.015L1994.3 403.311L1844.86 493.293C1805.5 517.127 1767.47 522.483 1741.22 508.022C1705.34 488.204 1656.6 493.828 1607.86 523.287L1352.11 677.273H1348.89L1093.14 523.287C1043.6 493.56 996.196 487.937 959.775 508.022C933.53 522.483 895.502 517.127 856.135 493.293L706.433 403.311L772.581 365.015ZM840.603 519.002C889.343 548.46 938.351 553.816 973.968 534.266C1000.48 519.805 1038.24 525.161 1077.61 548.996L1340.32 707.267H1360.14L1622.85 548.996C1662.22 525.161 1700.25 519.805 1726.49 534.266C1762.11 553.816 1811.12 548.46 1859.86 519.002L2023.49 420.45L2089.63 458.746L1844.33 606.573C1804.96 630.14 1766.93 635.764 1740.69 621.302C1704.8 601.485 1656.06 607.109 1607.32 636.567L1351.57 790.554H1348.36L1092.87 636.299C1043.33 606.573 995.928 600.949 959.507 621.035C933.262 635.496 895.234 629.872 855.867 606.305L610.56 458.478L676.707 420.182L840.603 519.002Z" fill="url(#paint2_linear_44_337)"/>
<path d="M59.6758 2525.33H0V2200.05H59.6758V2332.43H272.849V2200.05H332.525V2525.33H272.849V2392.95H59.6758V2525.33ZM712.958 2525.33H513.233C501.746 2525.33 491.275 2522.46 481.819 2516.71C472.364 2511.04 464.764 2503.44 459.021 2493.91C453.277 2484.46 450.405 2473.99 450.405 2462.5V2262.88C450.405 2251.39 453.277 2240.92 459.021 2231.47C464.764 2221.94 472.364 2214.34 481.819 2208.67C491.275 2202.92 501.746 2200.05 513.233 2200.05H712.958C724.375 2200.05 734.811 2202.92 744.267 2208.67C753.793 2214.34 761.427 2221.94 767.171 2231.47C772.844 2240.92 775.681 2251.39 775.681 2262.88V2462.5C775.681 2473.99 772.844 2484.46 767.171 2493.91C761.427 2503.44 753.793 2511.04 744.267 2516.71C734.811 2522.46 724.375 2525.33 712.958 2525.33ZM515.44 2465.23H709.701C711.242 2465.23 712.608 2464.71 713.799 2463.66C714.989 2462.61 715.585 2461.31 715.585 2459.77V2265.51C715.585 2264.04 714.989 2262.78 713.799 2261.72C712.608 2260.67 711.242 2260.15 709.701 2260.15H515.44C513.969 2260.15 512.708 2260.67 511.657 2261.72C510.607 2262.78 510.081 2264.04 510.081 2265.51V2459.77C510.081 2461.31 510.607 2462.61 511.657 2463.66C512.708 2464.71 513.969 2465.23 515.44 2465.23ZM1217.05 2525.33H1152.02L1053.99 2408.29H1132.16L1217.05 2508.62V2525.33ZM952.397 2525.33H892.721V2200.47H1154.75C1166.17 2200.47 1176.71 2203.34 1186.37 2209.09C1196.04 2214.83 1203.71 2222.43 1209.38 2231.89C1215.12 2241.41 1218 2251.88 1218 2263.3V2350.92C1218 2362.41 1215.12 2372.95 1209.38 2382.55C1203.71 2392.21 1196.04 2399.81 1186.37 2405.35C1176.71 2410.95 1166.17 2413.75 1154.75 2413.75L952.397 2414.17V2525.33ZM957.755 2353.65H1152.02C1153.56 2353.65 1154.92 2353.2 1156.11 2352.29C1157.31 2351.38 1157.9 2350.19 1157.9 2348.72V2265.51C1157.9 2264.04 1157.31 2262.78 1156.11 2261.72C1154.92 2260.67 1153.56 2260.15 1152.02 2260.15H957.755C956.284 2260.15 955.024 2260.67 953.973 2261.72C952.922 2262.78 952.397 2264.04 952.397 2265.51V2348.72C952.397 2350.19 952.922 2351.38 953.973 2352.29C955.024 2353.2 956.284 2353.65 957.755 2353.65ZM1385.57 2525.33H1326.42V2200.05H1385.57V2525.33ZM1819.8 2525.33H1494.52V2460.29L1732.6 2260.15H1494.52V2200.05H1819.8V2265.09L1581.62 2465.23H1819.8V2525.33ZM2196.55 2525.33H1996.83C1985.41 2525.33 1974.94 2522.46 1965.42 2516.71C1955.96 2511.04 1948.36 2503.44 1942.62 2493.91C1936.87 2484.46 1934 2473.99 1934 2462.5V2262.88C1934 2251.39 1936.87 2240.92 1942.62 2231.47C1948.36 2221.94 1955.96 2214.34 1965.42 2208.67C1974.94 2202.92 1985.41 2200.05 1996.83 2200.05H2196.55C2207.97 2200.05 2218.44 2202.92 2227.97 2208.67C2237.42 2214.34 2245.02 2221.94 2250.77 2231.47C2256.44 2240.92 2259.28 2251.39 2259.28 2262.88V2462.5C2259.28 2473.99 2256.44 2484.46 2250.77 2493.91C2245.02 2503.44 2237.42 2511.04 2227.97 2516.71C2218.44 2522.46 2207.97 2525.33 2196.55 2525.33ZM1999.14 2465.23H2193.4C2194.87 2465.23 2196.2 2464.71 2197.39 2463.66C2198.66 2462.61 2199.29 2461.31 2199.29 2459.77V2265.51C2199.29 2264.04 2198.66 2262.78 2197.39 2261.72C2196.2 2260.67 2194.87 2260.15 2193.4 2260.15H1999.14C1997.6 2260.15 1996.3 2260.67 1995.25 2261.72C1994.2 2262.78 1993.68 2264.04 1993.68 2265.51V2459.77C1993.68 2461.31 1994.2 2462.61 1995.25 2463.66C1996.3 2464.71 1997.6 2465.23 1999.14 2465.23ZM2435.99 2525.33H2376.32V2200.05H2441.88L2641.5 2437.71V2200.05H2701.59V2525.33H2636.14L2435.99 2287.26V2525.33Z" fill="black"/>
<defs>
<linearGradient id="paint0_linear_44_337" x1="1560.21" y1="948.845" x2="1627.92" y2="1037.16" gradientUnits="userSpaceOnUse">
<stop/>
</linearGradient>
<linearGradient id="paint1_linear_44_337" x1="1153.07" y1="1004.09" x2="620.834" y2="1536.32" gradientUnits="userSpaceOnUse">
<stop/>
</linearGradient>
<linearGradient id="paint2_linear_44_337" x1="1350.23" y1="0" x2="1350.23" y2="935.167" gradientUnits="userSpaceOnUse">
<stop/>
</linearGradient>
</defs>
</svg>
