<svg width="1666" height="1933" viewBox="0 0 1666 1933" fill="none" xmlns="http://www.w3.org/2000/svg">
<path d="M1665.33 1466.87L1662.38 550.185L1535.71 624.366L1532.5 932.34C1531.7 989.114 1550.44 1031.96 1585.53 1052.85C1610.7 1067.85 1624.62 1102.39 1623.82 1147.12L1619.54 1458.84L1539.46 1505.71L1543.48 1212.46C1544.28 1155.95 1525.54 1113.11 1490.46 1091.95C1465.28 1076.95 1451.36 1042.67 1452.16 997.683L1455.64 671.232L1315.04 753.18L1311.56 1061.96C1310.76 1118.73 1329.77 1161.58 1364.59 1182.47C1389.49 1197.46 1403.69 1231.74 1402.88 1276.73L1398.6 1587.92L1318.53 1634.52L1322.54 1342.08C1323.35 1285.57 1304.33 1242.72 1269.52 1221.57C1244.34 1206.57 1230.42 1172.29 1230.95 1127.3L1234.7 799.777L1093.57 882.26L1090.36 1191.84C1089.55 1248.35 1108.57 1291.2 1143.38 1312.35C1168.56 1327.35 1182.48 1361.63 1181.68 1406.62L1177.39 1717L1097.32 1763.87L1101.34 1472.23C1102.14 1415.46 1083.4 1372.61 1048.31 1351.72C1023.14 1336.72 1009.21 1302.44 1010.02 1257.45L1013.5 929.394L870.492 1013.22V1931.78L987.522 1863.22L991.003 1537.04C991.807 1480.53 973.06 1437.68 937.978 1416.53C917.625 1404.21 904.503 1379.03 900.754 1346.09V1238.17L903.7 1028.75L983.772 981.883L980.023 1256.92C979.22 1313.69 997.966 1356.54 1033.05 1377.43C1058.22 1392.42 1072.15 1426.7 1071.34 1471.69L1067.59 1816.36L1208.46 1733.87L1211.94 1407.15C1212.74 1350.38 1194 1307.8 1158.92 1286.64C1134.01 1271.65 1119.82 1237.37 1120.62 1192.38L1124.64 899.4L1204.71 852.534L1200.96 1126.76C1200.16 1183.54 1219.17 1226.12 1253.99 1247.28C1279.16 1262.27 1293.08 1296.55 1292.55 1341.54L1288.8 1686.74L1429.93 1604.26L1433.15 1277C1433.95 1220.23 1414.93 1177.38 1380.12 1156.49C1354.95 1141.49 1341.02 1106.95 1341.56 1062.22L1345.57 770.051L1425.65 723.186L1421.9 996.88C1421.09 1053.39 1439.84 1096.23 1474.92 1117.39C1500.1 1132.39 1514.02 1166.67 1513.22 1211.66L1510 1557.93L1665.33 1466.87ZM1601.06 1026.87C1575.88 1011.88 1561.96 977.598 1562.76 932.607L1566.78 641.238L1632.66 602.674L1634.27 1060.35C1625.43 1046.16 1614.45 1034.91 1601.06 1026.87ZM922.713 1442.5C947.887 1457.5 961.813 1491.78 961.009 1536.77L956.724 1846.35L900.754 1879.02V1424.29C907.181 1431.52 914.412 1437.68 922.713 1442.5Z" fill="url(#paint0_linear_40_266)"/>
<path d="M155.995 1557.93L152.513 1211.93C151.977 1167.2 165.903 1132.66 190.809 1117.66C225.891 1096.5 244.637 1053.92 243.834 997.148L240.085 723.453L320.158 770.319L324.175 1062.49C324.71 1107.21 310.785 1141.49 285.611 1156.76C250.529 1177.65 231.783 1220.5 232.586 1277.27L235.8 1604.52L376.932 1687.01L373.182 1341.81C372.647 1297.09 386.573 1262.54 411.746 1247.54C446.828 1226.39 465.574 1183.81 464.771 1127.03L461.022 852.802L541.095 899.667L545.112 1192.64C545.647 1237.37 531.722 1271.91 506.816 1286.91C471.734 1308.07 452.988 1350.65 453.791 1407.42L457.273 1734.14L598.137 1816.62L594.388 1471.96C593.852 1427.24 607.778 1392.96 632.683 1377.7C667.766 1356.81 686.512 1313.96 685.708 1257.18L682.227 982.151L762.3 1029.02L765.246 1238.44V1346.36C761.496 1379.57 748.374 1404.48 728.021 1416.79C692.939 1437.95 674.193 1480.53 674.996 1537.31L678.478 1863.49L795.507 1932.05V1013.48L652.501 929.661L655.982 1257.72C656.518 1302.44 642.592 1336.72 617.686 1351.99C582.604 1373.14 563.858 1415.72 564.661 1472.5L568.678 1764.13L488.605 1717.27L484.321 1406.89C483.517 1362.16 497.711 1327.62 522.616 1312.62C557.699 1291.46 576.445 1248.88 575.641 1192.11L572.428 882.528L431.028 800.045L434.777 1127.57C435.313 1172.29 421.387 1206.84 396.214 1221.83C361.131 1242.99 342.385 1285.57 343.189 1342.35L347.206 1634.79L267.133 1588.19L263.116 1276.73C262.58 1232.01 276.506 1197.73 301.411 1182.47C336.494 1161.31 355.24 1118.73 354.436 1061.96L350.955 753.179L210.358 670.964L213.84 997.415C214.375 1042.14 200.45 1076.69 175.544 1091.68C140.462 1112.84 121.716 1155.42 122.519 1212.19L126.536 1505.44L46.4632 1458.57L42.1784 1146.85C41.6428 1102.13 55.5685 1067.85 80.4742 1052.58C115.556 1031.69 134.303 988.846 133.499 932.071L130.285 624.098L3.61479 549.917L0.668945 1466.87L155.995 1557.93ZM32.0019 1060.35L33.6087 602.674L99.4882 641.238L103.505 932.607C104.041 977.33 90.1151 1011.61 65.2094 1026.87C51.5515 1034.91 40.5715 1046.16 32.0019 1060.35ZM764.978 1424.29V1879.02L709.007 1846.35L704.722 1536.77C704.187 1492.05 718.112 1457.5 743.018 1442.5C751.588 1437.68 758.818 1431.52 764.978 1424.29Z" fill="url(#paint1_linear_40_266)"/>
<path d="M833 935.553L1643.64 465.559L837.552 0.385742H828.447L22.3608 465.559L833 935.553ZM833 901.006L414.96 658.645C429.956 657.842 444.15 654.092 456.737 647.397C483.249 632.936 521.009 638.292 560.376 662.126L823.091 820.398H842.908L1105.62 662.126C1144.99 638.292 1182.75 632.936 1209.26 647.397C1221.85 654.36 1235.77 657.842 1251.04 658.645L833 901.006ZM833 32.2543L902.896 72.6925L835.142 113.666H831.125L763.371 72.6925L833 32.2543ZM733.645 89.5641L822.555 143.125H843.176L932.087 89.5641L998.234 127.86L834.606 226.411H830.589L666.962 127.86L733.645 89.5641ZM638.039 144.731L822.823 256.137H843.444L1028.23 144.731L1094.64 183.027C1093.3 183.831 1091.96 184.366 1090.89 185.17L835.142 339.156H831.393L575.641 185.17C574.302 184.366 573.231 183.831 571.892 183.027L638.039 144.731ZM541.095 200.702C547.254 203.648 553.681 206.862 560.109 210.611L822.823 368.882H843.176L1105.89 210.611C1112.32 206.862 1118.48 203.648 1124.9 200.702L1277.28 288.542C1256.93 292.826 1238.72 290.952 1223.99 282.65C1187.57 262.832 1140.17 268.188 1090.63 297.915L834.874 451.901H831.125L575.641 297.915C526.901 268.456 478.161 262.832 442.275 282.65C427.546 290.684 409.068 292.559 388.983 288.542L541.095 200.702ZM353.901 308.627C391.929 324.159 428.35 324.159 456.737 308.627C483.249 294.165 521.009 299.521 560.376 323.356L823.091 481.627H843.444L1106.16 323.356C1145.53 299.521 1183.29 294.165 1209.8 308.627C1238.19 324.159 1274.34 324.159 1312.63 308.627L1381.46 348.529L1327.63 380.933C1288.26 404.768 1250.24 410.124 1223.99 395.663C1188.11 376.113 1139.37 381.737 1090.63 410.927L834.874 564.914H831.393L575.641 410.927C526.901 381.737 478.429 376.113 442.275 395.663C416.031 410.124 378.003 404.768 338.636 380.933L284.807 348.529L353.901 308.627ZM255.349 365.401L323.371 406.375C372.111 435.833 421.119 441.189 456.737 421.639C483.249 407.178 521.009 412.534 560.376 436.369L823.091 594.64H843.176L1105.89 436.369C1145.26 412.534 1183.29 407.178 1209.53 421.639C1245.15 441.189 1294.16 435.833 1342.9 406.375L1410.65 365.401L1477.07 403.697L1327.63 493.678C1288.26 517.513 1250.24 522.869 1223.99 508.408C1188.11 488.59 1139.37 494.214 1090.63 523.672L834.874 677.659H831.661L575.909 523.672C526.365 493.946 478.964 488.322 442.543 508.408C416.299 522.869 378.271 517.513 338.904 493.678L189.202 403.697L255.349 365.401ZM323.371 519.387C372.111 548.846 421.119 554.202 456.737 534.652C483.249 520.191 521.009 525.547 560.376 549.381L823.091 707.653H842.908L1105.62 549.381C1144.99 525.547 1183.02 520.191 1209.26 534.652C1244.88 554.202 1293.89 548.846 1342.63 519.387L1506.26 420.836L1572.4 459.132L1327.1 606.959C1287.73 630.526 1249.7 636.149 1223.46 621.688C1187.57 601.871 1138.83 607.495 1090.09 636.953L834.339 790.939H831.125L575.641 636.685C526.098 606.959 478.697 601.335 442.275 621.42C416.031 635.882 378.003 630.258 338.636 606.691L93.3285 458.864L159.476 420.568L323.371 519.387Z" fill="url(#paint2_linear_40_266)"/>
<defs>
<linearGradient id="paint0_linear_40_266" x1="1042.98" y1="949.231" x2="1110.69" y2="1037.55" gradientUnits="userSpaceOnUse">
<stop stop-color="#ADADAD"/>
<stop offset="1" stop-color="#2E2E2E"/>
</linearGradient>
<linearGradient id="paint1_linear_40_266" x1="635.837" y1="1004.47" x2="103.602" y2="1536.71" gradientUnits="userSpaceOnUse">
<stop stop-color="#ADADAD"/>
<stop offset="1" stop-color="#2E2E2E"/>
</linearGradient>
<linearGradient id="paint2_linear_40_266" x1="522.412" y1="776.207" x2="1081.19" y2="217.432" gradientUnits="userSpaceOnUse">
<stop stop-color="#ADADAD"/>
<stop offset="0.3631" stop-color="#2E2E2E"/>
<stop offset="0.7374" stop-color="#ADADAD"/>
<stop offset="1" stop-color="#2E2E2E"/>
</linearGradient>
</defs>
</svg>
