<svg width="2703" height="2526" viewBox="0 0 2703 2526" fill="none" xmlns="http://www.w3.org/2000/svg">
<path d="M2183.33 1466.87L2180.38 550.185L2053.71 624.366L2050.5 932.34C2049.7 989.114 2068.44 1031.96 2103.53 1052.85C2128.7 1067.85 2142.62 1102.39 2141.82 1147.12L2137.54 1458.84L2057.46 1505.71L2061.48 1212.46C2062.28 1155.95 2043.54 1113.11 2008.46 1091.95C1983.28 1076.95 1969.36 1042.67 1970.16 997.683L1973.64 671.232L1833.04 753.18L1829.56 1061.96C1828.76 1118.73 1847.77 1161.58 1882.59 1182.47C1907.49 1197.46 1921.69 1231.74 1920.88 1276.73L1916.6 1587.92L1836.53 1634.52L1840.54 1342.08C1841.35 1285.57 1822.33 1242.72 1787.52 1221.57C1762.34 1206.57 1748.42 1172.29 1748.95 1127.3L1752.7 799.777L1611.57 882.26L1608.36 1191.84C1607.55 1248.35 1626.57 1291.2 1661.38 1312.35C1686.56 1327.35 1700.48 1361.63 1699.68 1406.62L1695.39 1717L1615.32 1763.87L1619.34 1472.23C1620.14 1415.46 1601.4 1372.61 1566.31 1351.72C1541.14 1336.72 1527.21 1302.44 1528.02 1257.45L1531.5 929.394L1388.49 1013.22V1931.78L1505.52 1863.22L1509 1537.04C1509.81 1480.53 1491.06 1437.68 1455.98 1416.53C1435.63 1404.21 1422.5 1379.03 1418.75 1346.09V1238.17L1421.7 1028.75L1501.77 981.883L1498.02 1256.92C1497.22 1313.69 1515.97 1356.54 1551.05 1377.43C1576.22 1392.42 1590.15 1426.7 1589.34 1471.69L1585.59 1816.36L1726.46 1733.87L1729.94 1407.15C1730.74 1350.38 1712 1307.8 1676.92 1286.64C1652.01 1271.65 1637.82 1237.37 1638.62 1192.38L1642.64 899.4L1722.71 852.534L1718.96 1126.76C1718.16 1183.54 1737.17 1226.12 1771.99 1247.28C1797.16 1262.27 1811.08 1296.55 1810.55 1341.54L1806.8 1686.74L1947.93 1604.26L1951.15 1277C1951.95 1220.23 1932.93 1177.38 1898.12 1156.49C1872.95 1141.49 1859.02 1106.95 1859.56 1062.22L1863.57 770.051L1943.65 723.186L1939.9 996.88C1939.09 1053.39 1957.84 1096.23 1992.92 1117.39C2018.1 1132.39 2032.02 1166.67 2031.22 1211.66L2028 1557.93L2183.33 1466.87ZM2119.06 1026.87C2093.88 1011.88 2079.96 977.598 2080.76 932.607L2084.78 641.238L2150.66 602.674L2152.27 1060.35C2143.43 1046.16 2132.45 1034.91 2119.06 1026.87ZM1440.71 1442.5C1465.89 1457.5 1479.81 1491.78 1479.01 1536.77L1474.72 1846.35L1418.75 1879.02V1424.29C1425.18 1431.52 1432.41 1437.68 1440.71 1442.5Z" fill="url(#paint0_linear_40_278)"/>
<path d="M673.995 1557.93L670.513 1211.93C669.977 1167.2 683.903 1132.66 708.809 1117.66C743.891 1096.5 762.637 1053.92 761.834 997.148L758.085 723.453L838.158 770.319L842.175 1062.49C842.71 1107.21 828.785 1141.49 803.611 1156.76C768.529 1177.65 749.783 1220.5 750.586 1277.27L753.8 1604.52L894.932 1687.01L891.182 1341.81C890.647 1297.09 904.573 1262.54 929.746 1247.54C964.828 1226.39 983.574 1183.81 982.771 1127.03L979.022 852.802L1059.09 899.667L1063.11 1192.64C1063.65 1237.37 1049.72 1271.91 1024.82 1286.91C989.734 1308.07 970.988 1350.65 971.791 1407.42L975.273 1734.14L1116.14 1816.62L1112.39 1471.96C1111.85 1427.24 1125.78 1392.96 1150.68 1377.7C1185.77 1356.81 1204.51 1313.96 1203.71 1257.18L1200.23 982.151L1280.3 1029.02L1283.25 1238.44V1346.36C1279.5 1379.57 1266.37 1404.48 1246.02 1416.79C1210.94 1437.95 1192.19 1480.53 1193 1537.31L1196.48 1863.49L1313.51 1932.05V1013.48L1170.5 929.661L1173.98 1257.72C1174.52 1302.44 1160.59 1336.72 1135.69 1351.99C1100.6 1373.14 1081.86 1415.72 1082.66 1472.5L1086.68 1764.13L1006.61 1717.27L1002.32 1406.89C1001.52 1362.16 1015.71 1327.62 1040.62 1312.62C1075.7 1291.46 1094.44 1248.88 1093.64 1192.11L1090.43 882.528L949.028 800.045L952.777 1127.57C953.313 1172.29 939.387 1206.84 914.214 1221.83C879.131 1242.99 860.385 1285.57 861.189 1342.35L865.206 1634.79L785.133 1588.19L781.116 1276.73C780.58 1232.01 794.506 1197.73 819.411 1182.47C854.494 1161.31 873.24 1118.73 872.436 1061.96L868.955 753.179L728.358 670.964L731.84 997.415C732.375 1042.14 718.45 1076.69 693.544 1091.68C658.462 1112.84 639.716 1155.42 640.519 1212.19L644.536 1505.44L564.463 1458.57L560.178 1146.85C559.643 1102.13 573.569 1067.85 598.474 1052.58C633.556 1031.69 652.303 988.846 651.499 932.071L648.285 624.098L521.615 549.917L518.669 1466.87L673.995 1557.93ZM550.002 1060.35L551.609 602.674L617.488 641.238L621.505 932.607C622.041 977.33 608.115 1011.61 583.209 1026.87C569.551 1034.91 558.572 1046.16 550.002 1060.35ZM1282.98 1424.29V1879.02L1227.01 1846.35L1222.72 1536.77C1222.19 1492.05 1236.11 1457.5 1261.02 1442.5C1269.59 1437.68 1276.82 1431.52 1282.98 1424.29Z" fill="url(#paint1_linear_40_278)"/>
<path d="M1351 935.553L2161.64 465.559L1355.55 0.385742H1346.45L540.361 465.559L1351 935.553ZM1351 901.006L932.96 658.645C947.956 657.842 962.15 654.092 974.737 647.397C1001.25 632.936 1039.01 638.292 1078.38 662.126L1341.09 820.398H1360.91L1623.62 662.126C1662.99 638.292 1700.75 632.936 1727.26 647.397C1739.85 654.36 1753.77 657.842 1769.04 658.645L1351 901.006ZM1351 32.2543L1420.9 72.6925L1353.14 113.666H1349.12L1281.37 72.6925L1351 32.2543ZM1251.64 89.5641L1340.56 143.125H1361.18L1450.09 89.5641L1516.23 127.86L1352.61 226.411H1348.59L1184.96 127.86L1251.64 89.5641ZM1156.04 144.731L1340.82 256.137H1361.44L1546.23 144.731L1612.64 183.027C1611.3 183.831 1609.96 184.366 1608.89 185.17L1353.14 339.156H1349.39L1093.64 185.17C1092.3 184.366 1091.23 183.831 1089.89 183.027L1156.04 144.731ZM1059.09 200.702C1065.25 203.648 1071.68 206.862 1078.11 210.611L1340.82 368.882H1361.18L1623.89 210.611C1630.32 206.862 1636.48 203.648 1642.9 200.702L1795.28 288.542C1774.93 292.826 1756.72 290.952 1741.99 282.65C1705.57 262.832 1658.17 268.188 1608.63 297.915L1352.87 451.901H1349.12L1093.64 297.915C1044.9 268.456 996.161 262.832 960.275 282.65C945.546 290.684 927.068 292.559 906.983 288.542L1059.09 200.702ZM871.901 308.627C909.929 324.159 946.35 324.159 974.737 308.627C1001.25 294.165 1039.01 299.521 1078.38 323.356L1341.09 481.627H1361.44L1624.16 323.356C1663.53 299.521 1701.29 294.165 1727.8 308.627C1756.19 324.159 1792.34 324.159 1830.63 308.627L1899.46 348.529L1845.63 380.933C1806.26 404.768 1768.24 410.124 1741.99 395.663C1706.11 376.113 1657.37 381.737 1608.63 410.927L1352.87 564.914H1349.39L1093.64 410.927C1044.9 381.737 996.429 376.113 960.275 395.663C934.031 410.124 896.003 404.768 856.636 380.933L802.807 348.529L871.901 308.627ZM773.349 365.401L841.371 406.375C890.111 435.833 939.119 441.189 974.737 421.639C1001.25 407.178 1039.01 412.534 1078.38 436.369L1341.09 594.64H1361.18L1623.89 436.369C1663.26 412.534 1701.29 407.178 1727.53 421.639C1763.15 441.189 1812.16 435.833 1860.9 406.375L1928.65 365.401L1995.07 403.697L1845.63 493.678C1806.26 517.513 1768.24 522.869 1741.99 508.408C1706.11 488.59 1657.37 494.214 1608.63 523.672L1352.87 677.659H1349.66L1093.91 523.672C1044.37 493.946 996.964 488.322 960.543 508.408C934.299 522.869 896.271 517.513 856.904 493.678L707.202 403.697L773.349 365.401ZM841.371 519.387C890.111 548.846 939.119 554.202 974.737 534.652C1001.25 520.191 1039.01 525.547 1078.38 549.381L1341.09 707.653H1360.91L1623.62 549.381C1662.99 525.547 1701.02 520.191 1727.26 534.652C1762.88 554.202 1811.89 548.846 1860.63 519.387L2024.26 420.836L2090.4 459.132L1845.1 606.959C1805.73 630.526 1767.7 636.149 1741.46 621.688C1705.57 601.871 1656.83 607.495 1608.09 636.953L1352.34 790.939H1349.12L1093.64 636.685C1044.1 606.959 996.697 601.335 960.275 621.42C934.031 635.882 896.003 630.258 856.636 606.691L611.328 458.864L677.476 420.568L841.371 519.387Z" fill="url(#paint2_linear_40_278)"/>
<path d="M60.4442 2525.71H0.768311V2200.44H60.4442V2332.82H273.617V2200.44H333.293V2525.71H273.617V2393.33H60.4442V2525.71ZM713.726 2525.71H514.002C502.515 2525.71 492.043 2522.84 482.588 2517.1C473.132 2511.43 465.532 2503.83 459.789 2494.3C454.046 2484.84 451.174 2474.37 451.174 2462.89V2263.27C451.174 2251.78 454.046 2241.31 459.789 2231.85C465.532 2222.33 473.132 2214.73 482.588 2209.05C492.043 2203.31 502.515 2200.44 514.002 2200.44H713.726C725.143 2200.44 735.58 2203.31 745.035 2209.05C754.561 2214.73 762.196 2222.33 767.939 2231.85C773.612 2241.31 776.449 2251.78 776.449 2263.27V2462.89C776.449 2474.37 773.612 2484.84 767.939 2494.3C762.196 2503.83 754.561 2511.43 745.035 2517.1C735.58 2522.84 725.143 2525.71 713.726 2525.71ZM516.208 2465.62H710.47C712.01 2465.62 713.376 2465.09 714.567 2464.04C715.758 2462.99 716.353 2461.7 716.353 2460.15V2265.89C716.353 2264.42 715.758 2263.16 714.567 2262.11C713.376 2261.06 712.01 2260.53 710.47 2260.53H516.208C514.737 2260.53 513.476 2261.06 512.426 2262.11C511.375 2263.16 510.85 2264.42 510.85 2265.89V2460.15C510.85 2461.7 511.375 2462.99 512.426 2464.04C513.476 2465.09 514.737 2465.62 516.208 2465.62ZM1217.82 2525.71H1152.79L1054.76 2408.67H1132.93L1217.82 2509.01V2525.71ZM953.165 2525.71H893.489V2200.86H1155.52C1166.93 2200.86 1177.48 2203.73 1187.14 2209.47C1196.81 2215.22 1204.48 2222.82 1210.15 2232.27C1215.89 2241.8 1218.76 2252.27 1218.76 2263.69V2351.31C1218.76 2362.8 1215.89 2373.34 1210.15 2382.93C1204.48 2392.6 1196.81 2400.2 1187.14 2405.73C1177.48 2411.34 1166.93 2414.14 1155.52 2414.14L953.165 2414.56V2525.71ZM958.524 2354.04H1152.79C1154.33 2354.04 1155.69 2353.59 1156.88 2352.67C1158.07 2351.76 1158.67 2350.57 1158.67 2349.1V2265.89C1158.67 2264.42 1158.07 2263.16 1156.88 2262.11C1155.69 2261.06 1154.33 2260.53 1152.79 2260.53H958.524C957.053 2260.53 955.792 2261.06 954.741 2262.11C953.691 2263.16 953.165 2264.42 953.165 2265.89V2349.1C953.165 2350.57 953.691 2351.76 954.741 2352.67C955.792 2353.59 957.053 2354.04 958.524 2354.04ZM1386.34 2525.71H1327.19V2200.44H1386.34V2525.71ZM1820.57 2525.71H1495.29V2460.68L1733.36 2260.53H1495.29V2200.44H1820.57V2265.47L1582.39 2465.62H1820.57V2525.71ZM2197.32 2525.71H1997.6C1986.18 2525.71 1975.71 2522.84 1966.18 2517.1C1956.73 2511.43 1949.13 2503.83 1943.39 2494.3C1937.64 2484.84 1934.77 2474.37 1934.77 2462.89V2263.27C1934.77 2251.78 1937.64 2241.31 1943.39 2231.85C1949.13 2222.33 1956.73 2214.73 1966.18 2209.05C1975.71 2203.31 1986.18 2200.44 1997.6 2200.44H2197.32C2208.74 2200.44 2219.21 2203.31 2228.74 2209.05C2238.19 2214.73 2245.79 2222.33 2251.53 2231.85C2257.21 2241.31 2260.05 2251.78 2260.05 2263.27V2462.89C2260.05 2474.37 2257.21 2484.84 2251.53 2494.3C2245.79 2503.83 2238.19 2511.43 2228.74 2517.1C2219.21 2522.84 2208.74 2525.71 2197.32 2525.71ZM1999.91 2465.62H2194.17C2195.64 2465.62 2196.97 2465.09 2198.16 2464.04C2199.42 2462.99 2200.05 2461.7 2200.05 2460.15V2265.89C2200.05 2264.42 2199.42 2263.16 2198.16 2262.11C2196.97 2261.06 2195.64 2260.53 2194.17 2260.53H1999.91C1998.37 2260.53 1997.07 2261.06 1996.02 2262.11C1994.97 2263.16 1994.45 2264.42 1994.45 2265.89V2460.15C1994.45 2461.7 1994.97 2462.99 1996.02 2464.04C1997.07 2465.09 1998.37 2465.62 1999.91 2465.62ZM2436.76 2525.71H2377.09V2200.44H2442.64L2642.26 2438.09V2200.44H2702.36V2525.71H2636.91L2436.76 2287.64V2525.71Z" fill="#A2A2A2"/>
<defs>
<linearGradient id="paint0_linear_40_278" x1="1560.98" y1="949.231" x2="1628.69" y2="1037.55" gradientUnits="userSpaceOnUse">
<stop stop-color="#ADADAD"/>
<stop offset="1" stop-color="#2E2E2E"/>
</linearGradient>
<linearGradient id="paint1_linear_40_278" x1="1153.84" y1="1004.47" x2="621.602" y2="1536.71" gradientUnits="userSpaceOnUse">
<stop stop-color="#ADADAD"/>
<stop offset="1" stop-color="#2E2E2E"/>
</linearGradient>
<linearGradient id="paint2_linear_40_278" x1="1040.41" y1="776.207" x2="1599.19" y2="217.432" gradientUnits="userSpaceOnUse">
<stop stop-color="#ADADAD"/>
<stop offset="0.3631" stop-color="#2E2E2E"/>
<stop offset="0.7374" stop-color="#ADADAD"/>
<stop offset="1" stop-color="#2E2E2E"/>
</linearGradient>
</defs>
</svg>
